G04 ================== begin FILE IDENTIFICATION RECORD ==================*
G04 Layout Name:  ANALYSIS_20170306_1.brd*
G04 Film Name:    BOTTOM*
G04 File Format:  Gerber RS274X*
G04 File Origin:  Cadence Allegro 16.6-P004*
G04 Origin Date:  Mon Mar 06 22:13:00 2017*
G04 *
G04 Layer:  BOARD GEOMETRY/OUTLINE*
G04 Layer:  ETCH/BOTTOM*
G04 Layer:  PIN/BOTTOM*
G04 Layer:  VIA CLASS/BOTTOM*
G04 *
G04 Offset:    (0.000 0.000)*
G04 Mirror:    No*
G04 Mode:      Positive*
G04 Rotation:  0*
G04 FullContactRelief:  No*
G04 UndefLineWidth:     5.000*
G04 ================== end FILE IDENTIFICATION RECORD ====================*
%FSLAX55Y55*MOIN*%
%IR0*IPPOS*OFA0.00000B0.00000*MIA0B0*SFA1.00000B1.00000*%
%ADD10C,.275591*%
%ADD15C,.06*%
%ADD17C,.043*%
%ADD11C,.054*%
%ADD16C,.055*%
%ADD12C,.028*%
%ADD14R,.06X.06*%
%ADD13R,.054X.054*%
%ADD18C,.006*%
%ADD19C,.01*%
%ADD20C,.02*%
%ADD21C,.03*%
%ADD22C,.04*%
%ADD23C,.016*%
%ADD24C,.005*%
%ADD26C,.101004*%
%ADD25C,.321596*%
%ADD27C,.089004*%
G75*
%LPD*%
G75*
G36*
G01X5600Y46200D02*
Y365700D01*
X446500D01*
Y46200D01*
X5600D01*
G37*
%LPC*%
G75*
G36*
G01X251698Y293101D02*
G03X251886Y292894I200J-7D01*
G02X253600Y287809I-186J-2894D01*
G01Y282191D01*
G02X252011Y277116I-1900J-2191D01*
G03X251659Y276655I43J-398D01*
G02X246895Y278386I-2863J-460D01*
G01Y291013D01*
G02X251698Y293101I1905J2187D01*
G37*
G36*
G01X231200Y293301D02*
G03X230812Y293701I-400J0D01*
G02X233798Y296481I88J2899D01*
G01X233794Y296393D01*
X235000Y295187D01*
Y273891D01*
G02X231200I-1900J-2191D01*
G01Y293301D01*
G37*
G36*
G01X174700Y257406D02*
Y250228D01*
G02X169900I-2400J-1628D01*
G01Y259394D01*
X183600Y273094D01*
Y296572D01*
G02X188400I2400J1628D01*
G01Y271106D01*
X174700Y257406D01*
G37*
G36*
G01X368600Y250187D02*
Y249091D01*
G02X364700Y249000I-1900J-2191D01*
G01Y257009D01*
G02X368500I1900J2191D01*
G01Y250287D01*
X368600Y250187D01*
G37*
G36*
G01X307075Y209974D02*
Y209874D01*
X294801Y197600D01*
X288600D01*
G02Y203400I0J2900D01*
G01X292399D01*
X301275Y212276D01*
Y212376D01*
X340000Y251101D01*
Y258700D01*
G02X345800I2900J0D01*
G01Y248699D01*
X307075Y209974D01*
G37*
G36*
G01X17403Y248480D02*
G03X17447Y249114I-221J334D01*
G02Y255257I2716J3072D01*
G03X17403Y255890I-265J300D01*
G02X16740Y263704I2760J4169D01*
G03Y264288I-274J292D01*
G02X23808Y271356I3423J3645D01*
G03X24392I292J274D01*
G02X31460Y264288I3645J-3422D01*
G03Y263704I274J-292D01*
G02X31459Y256414I-3422J-3645D01*
G03Y255830I274J-292D01*
G02X31460Y248540I-3422J-3645D01*
G03Y247956I274J-292D01*
G02Y240666I-3423J-3645D01*
G03Y240082I274J-292D01*
G02Y232792I-3423J-3645D01*
G03Y232208I274J-292D01*
G02Y224918I-3423J-3645D01*
G03Y224334I274J-292D01*
G02Y217044I-3423J-3645D01*
G03Y216460I274J-292D01*
G02X31459Y209170I-3422J-3645D01*
G03Y208586I274J-292D01*
G02X32482Y202650I-3422J-3645D01*
G03X32837Y202067I356J-183D01*
G01X33037D01*
Y192067D01*
X23037D01*
Y192267D01*
G03X22454Y192622I-400J0D01*
G02X16740Y200712I-2291J4445D01*
G03Y201295I-274J292D01*
G02X16741Y208586I3422J3645D01*
G03Y209170I-274J292D01*
G02X16740Y216460I3422J3645D01*
G03Y217044I-274J292D01*
G02Y224334I3423J3645D01*
G03Y224918I-274J292D01*
G02Y232208I3423J3645D01*
G03Y232792I-274J292D01*
G02Y240082I3423J3645D01*
G03Y240666I-274J292D01*
G02X17403Y248480I3422J3645D01*
G37*
G36*
G01X229600Y229809D02*
Y195991D01*
G02X225800I-1900J-2191D01*
G01Y229809D01*
G02X229600I1900J2191D01*
G37*
G36*
G01X307900Y164606D02*
X306440Y163146D01*
X306471Y163034D01*
G02X302619Y166646I-4871J-1334D01*
G03X303100Y167038I81J392D01*
G01Y170372D01*
G02X307900I2400J1628D01*
G01Y164606D01*
G37*
G36*
G01X190532Y142476D02*
X179931D01*
Y145642D01*
G03X179173Y145820I-400J0D01*
G02Y149732I-3941J1956D01*
G03X179931Y149910I358J178D01*
G01Y153077D01*
X190532D01*
Y142476D01*
G37*
G36*
G01X69532Y143376D02*
X58931D01*
Y146542D01*
G03X58173Y146720I-400J0D01*
G02Y150632I-3941J1956D01*
G03X58931Y150810I358J178D01*
G01Y153977D01*
X69532D01*
Y143376D01*
G37*
G36*
G01X423591Y246218D02*
G02X418501I-2545J-4649D01*
G03Y246920I-192J351D01*
G02Y256218I2545J4649D01*
G03Y256920I-192J351D01*
G02Y266218I2545J4649D01*
G03Y266920I-192J351D01*
G02Y276218I2545J4649D01*
G03Y276920I-192J351D01*
G02Y286218I2545J4649D01*
G03Y286920I-192J351D01*
G02Y296218I2545J4649D01*
G03Y296920I-192J351D01*
G02X418874Y306404I2545J4649D01*
G03X418710Y307169I-164J365D01*
G01X416646D01*
Y315969D01*
X425446D01*
Y307169D01*
X423381D01*
G03X423217Y306404I0J-400D01*
G02X423591Y296920I-2172J-4835D01*
G03Y296218I192J-351D01*
G02Y286920I-2545J-4649D01*
G03Y286218I192J-351D01*
G02Y276920I-2545J-4649D01*
G03Y276218I192J-351D01*
G02Y266920I-2545J-4649D01*
G03Y266218I192J-351D01*
G02Y256920I-2545J-4649D01*
G03Y256218I192J-351D01*
G02Y246920I-2545J-4649D01*
G03Y246218I192J-351D01*
G37*
G36*
G01X82226Y341070D02*
X71625D01*
Y351670D01*
X82226D01*
Y350112D01*
G03X82928Y349850I400J0D01*
G02X92014Y347853I3998J-3480D01*
G03X92775Y347832I384J112D01*
G02Y344908I4150J-1462D01*
G03X92014Y344887I-377J-133D01*
G02X82928Y342891I-5089J1483D01*
G03X82226Y342628I-302J-263D01*
G01Y341070D01*
G37*
G36*
G01X254900Y201828D02*
G02X250100I-2400J-1628D01*
G01Y212267D01*
G03X249542Y212634I-400J0D01*
G02X245502Y215419I-1142J2666D01*
G01X245506Y215507D01*
X237700Y223313D01*
Y227409D01*
G02X241500I1900J2191D01*
G01Y224887D01*
X248193Y218194D01*
X248281Y218198D01*
G02X249542Y217966I119J-2898D01*
G03X250100Y218333I158J368D01*
G01Y221724D01*
G03X249651Y222121I-400J0D01*
G02X247400Y227191I-351J2879D01*
G01Y259787D01*
X247554Y259941D01*
X247441Y260081D01*
G02X251219Y264371I2259J1819D01*
G03X251813Y264601I209J341D01*
G02X257032Y262221I2787J-801D01*
G01X257000Y262171D01*
Y261794D01*
X257022Y261773D01*
Y249727D01*
X255349Y248055D01*
X255337Y247997D01*
G02X254900Y246972I-2837J603D01*
G01Y238928D01*
G02Y235672I-2400J-1628D01*
G01Y201828D01*
G37*
G36*
G01X284004Y142149D02*
G02X280000Y140048I96J-5049D01*
G01Y142672D01*
G02X277301Y145055I1950J4928D01*
G03X276599I-351J-192D01*
G02X273800Y142633I-4649J2545D01*
G01Y141688D01*
G02X270000Y142180I-2500J-4388D01*
G01Y142670D01*
X269878Y142722D01*
G02X267301Y145055I2072J4878D01*
G03X266599I-351J-192D01*
G02X263036Y152788I-4649J2545D01*
G03X263401Y153462I82J392D01*
G01X260463Y156400D01*
X225413D01*
X209368Y172445D01*
Y250897D01*
X209189Y250916D01*
G02X206666Y254415I311J2883D01*
G03X206275Y254900I-391J85D01*
G01X202713D01*
X194700Y262913D01*
Y329258D01*
X182355Y341603D01*
X182231Y341552D01*
G02X175549Y343902I-2033J4895D01*
G03X174848I-351J-192D01*
G02X172100Y341500I-4649J2545D01*
G01Y279691D01*
G02X168300I-1900J-2191D01*
G01Y341498D01*
G02X165549Y343902I1899J4948D01*
G03X164848I-351J-192D01*
G02X162100Y341500I-4649J2545D01*
G01Y282191D01*
G02X158300I-1900J-2191D01*
G01Y341432D01*
X158298Y341434D01*
Y341497D01*
X158174Y341549D01*
G02X155549Y343902I2024J4898D01*
G03X154848I-351J-192D01*
G02X152100Y341500I-4649J2545D01*
G01Y285991D01*
G02X148300I-1900J-2191D01*
G01Y341498D01*
G02X145549Y343902I1899J4948D01*
G03X144848I-351J-192D01*
G02X135549I-4649J2545D01*
G03X134848I-351J-192D01*
G02X133598Y342381I-4649J2545D01*
G01Y339438D01*
X94023Y299862D01*
X81000D01*
Y219700D01*
G02X74200I-3400J0D01*
G01Y299862D01*
X35179D01*
X34885Y299568D01*
X33177D01*
Y297668D01*
X22576D01*
Y308269D01*
X25742D01*
G03X25920Y309027I0J400D01*
G02X29832I1956J3941D01*
G03X30010Y308269I178J-358D01*
G01X33177D01*
Y306663D01*
X91206D01*
X126565Y342022D01*
G03X126557Y342596I-283J283D01*
G02X125364Y344275I3642J3851D01*
G03X124599Y344112I-365J-164D01*
G01Y342047D01*
X115798D01*
Y350847D01*
X124599D01*
Y348782D01*
G03X125364Y348618I400J0D01*
G02X134848Y348992I4835J-2172D01*
G03X135549I351J192D01*
G02X144848I4649J-2545D01*
G03X145549I351J192D01*
G02X154848I4649J-2545D01*
G03X155549I351J192D01*
G02X164848I4649J-2545D01*
G03X165549I351J192D01*
G02X174848I4649J-2545D01*
G03X175549I351J192D01*
G02X184848I4649J-2545D01*
G03X185549I351J192D01*
G02X194848I4649J-2545D01*
G03X195549I351J192D01*
G02X204847I4649J-2545D01*
G03X205549I351J192D01*
G02X214848I4649J-2545D01*
G03X215549I351J192D01*
G02X224848I4649J-2545D01*
G03X225549I351J192D01*
G02X234848I4649J-2545D01*
G03X235549I351J192D01*
G02X244848I4649J-2545D01*
G03X245549I351J192D01*
G02X254847I4649J-2545D01*
G03X255549I351J192D01*
G02X264848I4649J-2545D01*
G03X265549I351J192D01*
G02X274848I4649J-2545D01*
G03X275549I351J192D01*
G02X284848I4649J-2545D01*
G03X285549I351J192D01*
G02X294848I4649J-2545D01*
G03X295549I351J192D01*
G02X304848I4649J-2545D01*
G03X305549I351J192D01*
G02Y343902I4649J-2545D01*
G03X304848I-351J-192D01*
G02X295549I-4649J2545D01*
G03X294848I-351J-192D01*
G02X285549I-4649J2545D01*
G03X284848I-351J-192D01*
G02X275549I-4649J2545D01*
G03X274848I-351J-192D01*
G02X268165Y341552I-4649J2545D01*
G01X268042Y341603D01*
X225500Y299062D01*
Y271991D01*
G02X223073Y266948I-1900J-2191D01*
G03X222600Y266555I-73J-393D01*
G01Y185013D01*
X221846Y184259D01*
X221959Y184119D01*
G02X217800Y184491I-2259J-1819D01*
G01Y185587D01*
X218800Y186587D01*
Y251567D01*
G03X218242Y251934I-400J0D01*
G02X215970Y251929I-1142J2666D01*
G02X215502Y251411I-2370J1671D01*
G01Y180485D01*
X232287Y163700D01*
X268537D01*
X279794Y152444D01*
X279917Y152495D01*
G02X286785Y149772I2033J-4895D01*
G03X287550Y149935I365J164D01*
G01Y152000D01*
X296350D01*
Y143200D01*
X287550D01*
Y145265D01*
G03X286785Y145428I-400J0D01*
G02X283926Y142682I-4835J2172D01*
G01X283800Y142631D01*
Y142349D01*
G03X284004Y142149I200J0D01*
G37*
G36*
G01X221700Y140440D02*
G02X217900Y141841I-3500J-3640D01*
G01Y142672D01*
G02X215201Y145055I1950J4928D01*
G03X214499I-351J-192D01*
G02X210936Y152788I-4649J2545D01*
G03X211301Y153462I82J392D01*
G01X197900Y166863D01*
Y210854D01*
G03X197245Y211163I-400J0D01*
G02X192502Y213519I-1845J2237D01*
G01X192506Y213607D01*
X186700Y219413D01*
Y262309D01*
G02X190500I1900J2191D01*
G01Y220987D01*
X195193Y216294D01*
X195281Y216298D01*
G02X197245Y215637I119J-2898D01*
G03X197900Y215946I254J309D01*
G01Y245787D01*
X200906Y248793D01*
X200902Y248881D01*
G02X203681Y246102I2898J119D01*
G01X203593Y246106D01*
X201700Y244213D01*
Y233627D01*
G03X202129Y233228I400J0D01*
G02X203420Y233026I209J-2893D01*
G02X207900Y229509I2579J-1326D01*
G01Y221900D01*
G02X205021Y217036I-2000J-2100D01*
G03X204500Y216655I-121J-381D01*
G01Y175637D01*
X227694Y152444D01*
X227817Y152495D01*
G02X234685Y149772I2033J-4895D01*
G03X235450Y149935I365J164D01*
G01Y152000D01*
X244250D01*
Y143200D01*
X235450D01*
Y145265D01*
G03X234685Y145428I-400J0D01*
G02X231800Y142672I-4835J2172D01*
G01Y142028D01*
X231974Y142005D01*
G02X228000Y140823I-673J-5005D01*
G01Y142633D01*
G02X225201Y145055I1850J4967D01*
G03X224499I-351J-192D01*
G02X221700Y142633I-4649J2545D01*
G01Y140440D01*
G37*
G54D26*
X374200Y197100D03*
G54D25*
X23300Y65823D03*
Y348500D03*
X427237Y65823D03*
Y348500D03*
G54D27*
X404200Y197100D03*
%LPD*%
G75*
G36*
G01X217694Y152444D02*
X201700Y168437D01*
Y172097D01*
G02X202383Y172380I400J0D01*
G01X221301Y153462D01*
G02X220936Y152788I-283J-283D01*
G03X217817Y152495I-1086J-5188D01*
G01X217694Y152444D01*
G37*
G36*
G01X197617Y331716D02*
X188748Y340585D01*
G02X189112Y341259I283J283D01*
G03X192231Y341552I1086J5188D01*
G01X192354Y341603D01*
X198300Y335658D01*
Y331999D01*
G02X197617Y331716I-400J0D01*
G37*
G36*
G01X226987Y160200D02*
X213168Y174019D01*
Y176479D01*
G02X213851Y176762I400J0D01*
G01X229730Y160883D01*
G02X229447Y160200I-283J-283D01*
G01X226987D01*
G37*
G36*
G01X218800Y266598D02*
Y261775D01*
G02X218291Y261390I-400J0D01*
G03X215741Y260905I-791J-2790D01*
G02X215098Y261208I-243J318D01*
G03X212085Y263998I-2898J-109D01*
G03X209172Y266600I-2885J-298D01*
G01X209088Y266599D01*
X208500Y267187D01*
Y274089D01*
G02X209034Y274466I400J0D01*
G03X212885Y276900I966J2734D01*
G03X213339Y276933I15J2900D01*
G02X213800Y276538I61J-395D01*
G01Y275226D01*
G03X214743Y270297I1900J-2191D01*
G03X218303Y266986I2857J-497D01*
G02X218800Y266598I97J-388D01*
G37*
G36*
G01X241649Y340585D02*
X218283Y317219D01*
G02X217600Y317502I-283J283D01*
G01Y321162D01*
X238042Y341603D01*
X238165Y341552D01*
G03X241284Y341259I2033J4895D01*
G02X241649Y340585I82J-392D01*
G37*
G36*
G01X251649D02*
X220783Y309719D01*
G02X220100Y310002I-283J283D01*
G01Y313662D01*
X248042Y341603D01*
X248165Y341552D01*
G03X251284Y341259I2033J4895D01*
G02X251649Y340585I82J-392D01*
G37*
G36*
G01X221648D02*
X212583Y331519D01*
G02X211900Y331802I-283J283D01*
G01Y335649D01*
X216251Y340000D01*
X216438D01*
X218042Y341603D01*
X218165Y341552D01*
G03X221284Y341259I2033J4895D01*
G02X221648Y340585I82J-392D01*
G37*
G36*
G01X231648D02*
X215483Y324419D01*
G02X214800Y324702I-283J283D01*
G01Y328362D01*
X228042Y341603D01*
X228165Y341552D01*
G03X231284Y341259I2033J4895D01*
G02X231648Y340585I82J-392D01*
G37*
G36*
G01X261649D02*
X223483Y302419D01*
G02X222800Y302702I-283J283D01*
G01Y306362D01*
X258042Y341603D01*
X258165Y341552D01*
G03X261284Y341259I2033J4895D01*
G02X261649Y340585I82J-392D01*
G37*
G36*
G01X251200Y251775D02*
Y258213D01*
X251600Y258613D01*
Y259709D01*
G03X251851Y259955I-1900J2191D01*
G01X251911Y260021D01*
X252200D01*
Y259806D01*
X252221Y259784D01*
Y251716D01*
X251955Y251449D01*
X251897Y251437D01*
G03X251709Y251390I604J-2837D01*
G02X251200Y251775I-109J385D01*
G37*
G36*
G01X266963Y159900D02*
X273401Y153462D01*
G02X273036Y152788I-283J-283D01*
G03X269917Y152495I-1086J-5188D01*
G01X269794Y152444D01*
X263020Y159217D01*
G02X263303Y159900I283J283D01*
G01X266963D01*
G37*
G54D10*
X23300Y65823D03*
Y348500D03*
X427237Y65823D03*
Y348500D03*
G54D20*
G01X186000Y298200D02*
Y272100D01*
X172300Y258400D01*
Y248600D01*
G01X252500Y237300D02*
Y200200D01*
G01X254600Y263800D02*
Y260800D01*
X254621Y260779D01*
Y250721D01*
X252500Y248600D01*
G01D02*
Y237300D01*
G01X305500Y172000D02*
Y165600D01*
X301600Y161700D01*
G54D11*
X20163Y197067D03*
Y204941D03*
Y212815D03*
Y220689D03*
Y228563D03*
Y236437D03*
Y244311D03*
Y252185D03*
Y260059D03*
Y267933D03*
X28037Y212815D03*
Y204941D03*
Y236437D03*
Y228563D03*
Y220689D03*
Y252185D03*
Y244311D03*
Y267933D03*
Y260059D03*
G54D21*
G01X288600Y200500D02*
X293600D01*
X301700Y208600D01*
G01D02*
X304175Y211075D01*
Y211175D01*
X342900Y249900D01*
Y258700D01*
G54D12*
X35200Y172000D03*
X24300Y326600D03*
X37300Y143100D03*
X43000Y160700D03*
X37800Y189800D03*
X51600Y319700D03*
X60800Y188800D03*
X60700Y201700D03*
X55000Y225300D03*
Y246500D03*
Y267700D03*
Y310000D03*
Y331200D03*
X54900Y347600D03*
X77600Y224400D03*
Y229100D03*
Y219700D03*
X76200Y310000D03*
Y331200D03*
X97400Y246500D03*
Y267700D03*
Y331200D03*
X118600Y246500D03*
Y267700D03*
Y310000D03*
X109000Y341500D03*
X129100Y160100D03*
X136000Y182000D03*
X124400Y231400D03*
X143490Y130490D03*
X139800Y267700D03*
X147400Y258400D03*
X150200Y283800D03*
X139800Y310000D03*
Y331200D03*
X160200Y280000D03*
X170200Y277500D03*
X181300Y217100D03*
X179800Y231400D03*
X172300Y248600D03*
X182500Y261500D03*
X188600Y264500D03*
X186000Y298200D03*
X195400Y213400D03*
X202338Y230335D03*
X205900Y219800D03*
X206000Y231700D03*
X203800Y249000D03*
X189600Y307000D03*
X193400Y326300D03*
X219700Y182300D03*
X213600Y253600D03*
X209500Y253800D03*
X217100Y254600D03*
X217500Y258600D03*
X212200Y261100D03*
X209200Y263700D03*
X217600Y269800D03*
X220700Y272800D03*
X210000Y277200D03*
X212900Y279800D03*
X215700Y273035D03*
X220900Y277000D03*
X227700Y193800D03*
X232100Y220900D03*
X239600Y229600D03*
X227700Y232000D03*
X223600Y269800D03*
X233100Y271700D03*
X237800Y295400D03*
X230900Y296600D03*
X245800Y138600D03*
X249400Y184400D03*
X252500Y200200D03*
X242200Y209400D03*
X248400Y215300D03*
X247800Y221100D03*
X240500Y234200D03*
X249300Y225000D03*
X244100Y240100D03*
X252500Y248600D03*
Y237300D03*
X250400Y267000D03*
X254600Y263800D03*
X249700Y261900D03*
X248795Y276195D03*
X251700Y280000D03*
X248800Y293200D03*
X251700Y290000D03*
X245700Y310000D03*
X266100Y171900D03*
X266800Y182900D03*
X269400Y231400D03*
X273400Y279300D03*
X266800Y310000D03*
Y331200D03*
X288600Y200500D03*
X288000Y310000D03*
Y331200D03*
X297400Y136700D03*
X305500Y172000D03*
X301700Y208600D03*
X294000Y228500D03*
X297700Y251600D03*
X296600Y279200D03*
X312000Y139900D03*
X320700Y264600D03*
X309200Y267700D03*
Y310000D03*
Y331200D03*
X335900Y148600D03*
X327300Y188300D03*
X330400Y204100D03*
Y225300D03*
Y267700D03*
Y310000D03*
Y331200D03*
X330600Y352600D03*
X351600Y140600D03*
Y161800D03*
Y182900D03*
X346800Y176300D03*
X351600Y225300D03*
X342900Y258700D03*
X351600Y310000D03*
Y331200D03*
Y352400D03*
X372700Y140600D03*
X366700Y246900D03*
X366600Y259200D03*
X372700Y310000D03*
Y331200D03*
Y352400D03*
X388600Y178000D03*
X387900Y210100D03*
X391200Y274400D03*
X405300Y244800D03*
X404200Y259200D03*
X430700Y211600D03*
X436700Y205500D03*
G54D22*
G01X27876Y302968D02*
X33476D01*
X33770Y303263D01*
X77600D01*
G01Y224400D02*
Y219700D01*
G01Y224400D02*
Y229100D01*
G01D02*
Y303263D01*
G01D02*
X92614D01*
X130198Y340847D01*
Y346447D01*
G54D13*
X28037Y197067D03*
G54D23*
G01X15863Y252185D02*
X20163D01*
G01X23276Y312968D02*
X27876D01*
G01D02*
X32477D01*
G01X54232Y144076D02*
Y148676D01*
G01D02*
Y153277D01*
G01X96926Y341770D02*
Y346370D01*
G01D02*
Y350970D01*
G01Y346370D02*
X101526D01*
G01X115598Y346447D02*
X120198D01*
G01Y341847D02*
Y346447D01*
G01D02*
Y351047D01*
G01X175232Y143176D02*
Y147776D01*
G01D02*
Y152377D01*
G01X170631Y147776D02*
X175232D01*
G01X239850Y143000D02*
Y147600D01*
G01D02*
Y152200D01*
G01Y147600D02*
X244450D01*
G01X291950D02*
Y152200D01*
G01Y147600D02*
X296550D01*
G01X421046Y311569D02*
Y316169D01*
G01X416446Y311569D02*
X421046D01*
G01D02*
X425646D01*
G54D14*
X27876Y302968D03*
X64232Y148676D03*
X76926Y346370D03*
X120198Y346447D03*
X185232Y147776D03*
X239850Y147600D03*
X291950D03*
X421046Y311569D03*
G54D24*
G01X3600Y44200D02*
Y367700D01*
X448500D01*
Y44200D01*
X3600D01*
G54D15*
X27876Y312968D03*
X54232Y148676D03*
X86926Y346370D03*
X96926D03*
X130198Y346447D03*
X150198D03*
X140198D03*
X170198D03*
X160198D03*
X175232Y147776D03*
X190198Y346447D03*
X180198D03*
X200198D03*
X219850Y147600D03*
X209850D03*
X220198Y346447D03*
X210198D03*
X229850Y147600D03*
X240198Y346447D03*
X230198D03*
X250198D03*
X271950Y147600D03*
X261950D03*
X270198Y346447D03*
X260198D03*
X281950Y147600D03*
X290198Y346447D03*
X280198D03*
X300198D03*
X310198D03*
X421046Y241569D03*
Y251569D03*
Y261569D03*
Y271569D03*
Y281569D03*
Y291569D03*
Y301569D03*
G54D16*
X218200Y136800D03*
X231300Y137000D03*
X271300Y137300D03*
X284100Y137100D03*
X301600Y161700D03*
X374200Y197100D03*
G54D17*
X404200D03*
G54D18*
G01X218200Y136800D02*
X218900D01*
X219800Y137700D01*
G01X271300Y137300D02*
X271700D01*
X271900Y137500D01*
G01X262900Y207000D02*
X262800D01*
X266800Y203000D01*
Y182900D01*
G54D19*
G01X27876Y312968D02*
Y323024D01*
G01D02*
X24300Y326600D01*
G01X54232Y148676D02*
X42876D01*
G01D02*
X37300Y143100D01*
G01X96926Y346370D02*
X97400Y345896D01*
Y331200D01*
G01X150198Y346447D02*
X150200Y346445D01*
Y283800D01*
G01X160200Y280000D02*
Y342345D01*
X160198Y342347D01*
Y346447D01*
G01X170198D02*
X170200Y346445D01*
Y277500D01*
G01X180198Y346447D02*
X196600Y330045D01*
Y263700D01*
X203500Y256800D01*
X214900D01*
X217100Y254600D01*
G01X203800Y249000D02*
X199800Y245000D01*
Y167650D01*
X219850Y147600D01*
G01X202338Y230335D02*
X202600D01*
Y174850D01*
X229850Y147600D01*
G01X188600Y264500D02*
Y220200D01*
X195400Y213400D01*
G01X190198Y346447D02*
X200200Y336445D01*
Y264000D01*
X205600Y258600D01*
X217500D01*
G01X200198Y346447D02*
X203097Y343548D01*
Y265602D01*
X207600Y261100D01*
X212200D01*
G01X219800Y137700D02*
Y143450D01*
X219850Y143500D01*
Y147600D01*
G01X209500Y253800D02*
X211268Y252032D01*
Y173232D01*
X226200Y158300D01*
X261250D01*
X271950Y147600D01*
G01X213600Y253600D02*
Y251100D01*
X213602Y251098D01*
Y179698D01*
X231500Y161800D01*
X267750D01*
X281950Y147600D01*
G01X220700Y272800D02*
Y185800D01*
X219700Y184800D01*
Y182300D01*
G01X206000Y231700D02*
Y222400D01*
X205900Y222300D01*
Y219800D01*
G01X210198Y346447D02*
X206600Y342849D01*
Y266400D01*
X207432Y265568D01*
Y265468D01*
X209200Y263700D01*
G01X210000Y277200D02*
Y336436D01*
X215464Y341900D01*
X215651D01*
X220198Y346447D01*
G01X212900Y279800D02*
Y329149D01*
X230198Y346447D01*
G01X215700Y273035D02*
Y321949D01*
X240198Y346447D01*
G01X250198D02*
X218200Y314449D01*
Y271464D01*
X217715Y270980D01*
Y269915D01*
X217600Y269800D01*
G01X220900Y277000D02*
Y307149D01*
X260198Y346447D01*
G01X229850Y147600D02*
Y143500D01*
X229900Y143450D01*
Y138400D01*
X231300Y137000D01*
G01X227700Y232000D02*
Y193800D01*
G01X242200Y209400D02*
X239600Y212000D01*
Y218800D01*
X237500Y220900D01*
X232100D01*
G01X233100Y271700D02*
Y294400D01*
X230900Y296600D01*
G01X223600Y269800D02*
Y299849D01*
X270198Y346447D01*
G01X242200Y209400D02*
Y191600D01*
X249400Y184400D01*
G01X239600Y229600D02*
Y224100D01*
X248400Y215300D01*
G01X240500Y234200D02*
X244100Y237800D01*
Y240100D01*
G01X240500Y234200D02*
X242268Y232432D01*
Y230803D01*
G01X242100Y226800D02*
X247800Y221100D01*
G01X242268Y230803D02*
X242100Y230636D01*
Y226800D01*
G01X249700Y261900D02*
Y259400D01*
X249300Y259000D01*
Y225000D01*
G01X248800Y293200D02*
Y290210D01*
X248795Y290205D01*
Y276195D01*
G01X251700Y280000D02*
Y290000D01*
G01X271900Y137500D02*
Y143450D01*
X271950Y143500D01*
Y147600D01*
G01X281950D02*
Y143500D01*
X281900Y143450D01*
Y139300D01*
X284100Y137100D01*
G01X291950Y147600D02*
Y142150D01*
G01D02*
X297400Y136700D01*
G01X366700Y246900D02*
Y249400D01*
X366600Y249500D01*
Y259200D01*
M02*
