G04 ================== begin FILE IDENTIFICATION RECORD ==================*
G04 Layout Name:  ANALYSIS_20170306_1.brd*
G04 Film Name:    SOLD_BOTTOM*
G04 File Format:  Gerber RS274X*
G04 File Origin:  Cadence Allegro 16.6-P004*
G04 Origin Date:  Mon Mar 06 22:13:00 2017*
G04 *
G04 Layer:  PIN/SOLDERMASK_BOTTOM*
G04 Layer:  PACKAGE GEOMETRY/SOLDERMASK_BOTTOM*
G04 Layer:  BOARD GEOMETRY/SOLDERMASK_BOTTOM*
G04 Layer:  BOARD GEOMETRY/OUTLINE*
G04 *
G04 Offset:    (0.000 0.000)*
G04 Mirror:    No*
G04 Mode:      Positive*
G04 Rotation:  0*
G04 FullContactRelief:  No*
G04 UndefLineWidth:     5.000*
G04 ================== end FILE IDENTIFICATION RECORD ====================*
%FSLAX55Y55*MOIN*%
%IR0*IPPOS*OFA0.00000B0.00000*MIA0B0*SFA1.00000B1.00000*%
%ADD10C,.275591*%
%ADD15C,.06*%
%ADD14C,.07*%
%ADD17C,.053*%
%ADD11C,.064*%
%ADD16C,.065*%
%ADD13R,.07X.07*%
%ADD12R,.064X.064*%
%ADD18C,.005*%
G75*
%LPD*%
G75*
G54D10*
X23300Y65823D03*
Y348500D03*
X427237Y65823D03*
Y348500D03*
G54D11*
X20163Y197067D03*
Y204941D03*
Y212815D03*
Y220689D03*
Y228563D03*
Y236437D03*
Y244311D03*
Y252185D03*
Y260059D03*
Y267933D03*
X28037Y212815D03*
Y204941D03*
Y236437D03*
Y228563D03*
Y220689D03*
Y252185D03*
Y244311D03*
Y267933D03*
Y260059D03*
G54D12*
Y197067D03*
G54D13*
X27876Y302968D03*
X64232Y148676D03*
X76926Y346370D03*
X120198Y346447D03*
X185232Y147776D03*
X239850Y147600D03*
X291950D03*
X421046Y311569D03*
G54D14*
X27876Y312968D03*
X54232Y148676D03*
X86926Y346370D03*
X96926D03*
X130198Y346447D03*
X150198D03*
X140198D03*
X170198D03*
X160198D03*
X175232Y147776D03*
X190198Y346447D03*
X180198D03*
X200198D03*
X219850Y147600D03*
X209850D03*
X220198Y346447D03*
X210198D03*
X229850Y147600D03*
X240198Y346447D03*
X230198D03*
X250198D03*
X271950Y147600D03*
X261950D03*
X270198Y346447D03*
X260198D03*
X281950Y147600D03*
X290198Y346447D03*
X280198D03*
X300198D03*
X310198D03*
X421046Y241569D03*
Y251569D03*
Y261569D03*
Y271569D03*
Y281569D03*
Y291569D03*
Y301569D03*
G54D15*
X218200Y136800D03*
X231300Y137000D03*
X271300Y137300D03*
X284100Y137100D03*
X301600Y161700D03*
G54D16*
X374200Y197100D03*
G54D17*
X404200D03*
G54D18*
G01X3600Y44200D02*
Y367700D01*
X448500D01*
Y44200D01*
X3600D01*
M02*
