G04 ================== begin FILE IDENTIFICATION RECORD ==================*
G04 Layout Name:  ANALYSIS_20170306_1.brd*
G04 Film Name:    TOP*
G04 File Format:  Gerber RS274X*
G04 File Origin:  Cadence Allegro 16.6-P004*
G04 Origin Date:  Mon Mar 06 22:12:59 2017*
G04 *
G04 Layer:  BOARD GEOMETRY/OUTLINE*
G04 Layer:  ETCH/TOP*
G04 Layer:  PIN/TOP*
G04 Layer:  VIA CLASS/TOP*
G04 *
G04 Offset:    (0.000 0.000)*
G04 Mirror:    No*
G04 Mode:      Positive*
G04 Rotation:  0*
G04 FullContactRelief:  No*
G04 UndefLineWidth:     5.000*
G04 ================== end FILE IDENTIFICATION RECORD ====================*
%FSLAX55Y55*MOIN*%
%IR0*IPPOS*OFA0.00000B0.00000*MIA0B0*SFA1.00000B1.00000*%
%ADD32R,.08X.1*%
%ADD22R,.1X.09*%
%ADD16R,.09X.1*%
%ADD27R,.05X.15*%
%ADD20R,.075X.208*%
%ADD33R,.126X.086*%
%ADD10C,.275591*%
%ADD39R,.14X.12*%
%ADD30R,.01X.07*%
%ADD29R,.07X.01*%
%ADD34R,.06X.04*%
%ADD28R,.04X.025*%
%ADD38R,.025X.05*%
%ADD35R,.06X.025*%
%ADD36R,.055X.04*%
%ADD19R,.025X.06*%
%ADD18R,.038X.03*%
%ADD26R,.03X.038*%
%ADD31R,.043X.047*%
%ADD15C,.06*%
%ADD41C,.043*%
%ADD37R,.055X.047*%
%ADD25R,.055X.056*%
%ADD21R,.056X.055*%
%ADD11C,.054*%
%ADD40C,.055*%
%ADD12C,.028*%
%ADD23R,.077X.047*%
%ADD24R,.086X.094*%
%ADD14R,.06X.06*%
%ADD17R,.094X.086*%
%ADD13R,.054X.054*%
%ADD42C,.01*%
%ADD43C,.02*%
%ADD44C,.03*%
%ADD45C,.04*%
%ADD46C,.05*%
%ADD47C,.015*%
%ADD48C,.025*%
%ADD49C,.016*%
%ADD50C,.035*%
%ADD51C,.005*%
%ADD59C,.101004*%
%ADD56R,.105004X.075004*%
%ADD52R,.203004X.088004*%
%ADD53C,.321596*%
%ADD57R,.114004X.122004*%
%ADD55R,.122004X.114004*%
%ADD54R,.118004X.128004*%
%ADD61R,.168004X.148004*%
%ADD58R,.083004X.075004*%
%ADD60C,.089004*%
G75*
%LPD*%
G75*
G36*
G01X5600Y46200D02*
Y365700D01*
X446500D01*
Y46200D01*
X5600D01*
G37*
%LPC*%
G75*
G36*
G01X266599Y145055D02*
G02Y150145I-4649J2545D01*
G03X267301I351J192D01*
G02X276599I4649J-2545D01*
G03X277301I351J192D01*
G02X286785Y149772I4649J-2545D01*
G03X287550Y149935I365J164D01*
G01Y152000D01*
X296350D01*
Y143200D01*
X287550D01*
Y145265D01*
G03X286785Y145428I-400J0D01*
G02X277301Y145055I-4835J2172D01*
G03X276599I-351J-192D01*
G02X267301I-4649J2545D01*
G03X266599I-351J-192D01*
G37*
G36*
G01X33177Y297668D02*
X22576D01*
Y308269D01*
X25742D01*
G03X25920Y309027I0J400D01*
G02X29832I1956J3941D01*
G03X30010Y308269I178J-358D01*
G01X33177D01*
Y305369D01*
X41174D01*
X41306Y305500D01*
X41600D01*
Y306900D01*
X42500D01*
Y312600D01*
X49100D01*
Y306900D01*
X50000D01*
Y299300D01*
X41600D01*
Y300568D01*
X33177D01*
Y297668D01*
G37*
G36*
G01X136094Y333200D02*
X91206D01*
X84525Y339880D01*
Y341645D01*
G02X82928Y342891I2400J4726D01*
G03X82226Y342628I-302J-263D01*
G01Y341070D01*
X71625D01*
Y351670D01*
X74525D01*
Y353620D01*
X78106Y357200D01*
X278894D01*
X282600Y353494D01*
Y351172D01*
G02X284848Y348992I-2402J-4725D01*
G03X285549I351J192D01*
G02X294848I4649J-2545D01*
G03X295549I351J192D01*
G02X304848I4649J-2545D01*
G03X305549I351J192D01*
G02Y343902I4649J-2545D01*
G03X304848I-351J-192D01*
G02X295549I-4649J2545D01*
G03X294848I-351J-192D01*
G02X285549I-4649J2545D01*
G03X284848I-351J-192D01*
G02X275549I-4649J2545D01*
G03X274848I-351J-192D01*
G02X265549I-4649J2545D01*
G03X264848I-351J-192D01*
G02X255549I-4649J2545D01*
G03X254847I-351J-192D01*
G02X245549I-4649J2545D01*
G03X244848I-351J-192D01*
G02X235549I-4649J2545D01*
G03X234848I-351J-192D01*
G02X225549I-4649J2545D01*
G03X224848I-351J-192D01*
G02X215549I-4649J2545D01*
G03X214848I-351J-192D01*
G02X205549I-4649J2545D01*
G03X204847I-351J-192D01*
G02X195549I-4649J2545D01*
G03X194848I-351J-192D01*
G02X185549I-4649J2545D01*
G03X184848I-351J-192D01*
G02X175549I-4649J2545D01*
G03X174848I-351J-192D01*
G02X165549I-4649J2545D01*
G03X164848I-351J-192D01*
G02X155549I-4649J2545D01*
G03X154848I-351J-192D01*
G02X145549I-4649J2545D01*
G03X144848I-351J-192D01*
G02X142800Y341829I-4649J2545D01*
G01Y339906D01*
X136094Y333200D01*
G37*
G36*
G01X339200Y152700D02*
X332600D01*
Y158400D01*
X331700D01*
Y160296D01*
X329615D01*
Y157396D01*
X318185D01*
Y160296D01*
X316200D01*
Y158500D01*
X315300D01*
Y152800D01*
X308700D01*
Y158500D01*
X307800D01*
Y166100D01*
X315700D01*
Y167700D01*
X312300D01*
Y186150D01*
X313200D01*
Y191700D01*
X322000D01*
Y186150D01*
X322900D01*
Y179087D01*
X327900Y174087D01*
Y166997D01*
X329615D01*
Y164097D01*
X331700D01*
Y166000D01*
X340100D01*
Y158400D01*
X339200D01*
Y152700D01*
G37*
G36*
G01X121955Y135300D02*
X84277D01*
X75301Y144276D01*
X69532D01*
Y143376D01*
X58931D01*
Y146542D01*
G03X58173Y146720I-400J0D01*
G02Y150632I-3941J1956D01*
G03X58931Y150810I358J178D01*
G01Y153977D01*
X59831D01*
Y157099D01*
X62450Y159718D01*
Y162050D01*
X60050D01*
Y176650D01*
X73650D01*
Y162050D01*
X71250D01*
Y156072D01*
X69401Y154224D01*
X69504Y153977D01*
X69532D01*
Y153077D01*
X78946D01*
X87923Y144100D01*
X118309D01*
X138278Y164069D01*
G03X137996Y164752I-283J283D01*
G01X137284D01*
Y168352D01*
X123200D01*
Y160500D01*
X122300D01*
Y154800D01*
X115700D01*
Y160500D01*
X114800D01*
Y168100D01*
X116100D01*
Y171000D01*
X114950D01*
Y168600D01*
X97950D01*
Y169500D01*
X93850D01*
Y178500D01*
X89650D01*
Y187300D01*
X87153D01*
X86235Y188217D01*
G03X85553Y187934I-283J-283D01*
G01Y187516D01*
X71552D01*
Y200716D01*
X85553D01*
Y198016D01*
X87468D01*
X88967Y196517D01*
G03X89650Y196800I283J283D01*
G01Y203900D01*
X90500D01*
Y206665D01*
X89300D01*
Y208315D01*
X84177D01*
X75196Y217296D01*
G02X74200Y219700I2404J2404D01*
G01Y229100D01*
G02X81000I3400J0D01*
G01Y221108D01*
X86993Y215115D01*
X89300D01*
Y216765D01*
X90200D01*
Y224865D01*
X98600D01*
Y216765D01*
X99500D01*
Y216474D01*
G03X100183Y216192I400J0D01*
G01X100492Y216500D01*
X102200D01*
Y216900D01*
X103100D01*
Y222600D01*
X109700D01*
Y216900D01*
X110600D01*
Y216500D01*
X133400D01*
Y225450D01*
X145700D01*
Y223450D01*
X151735D01*
Y235700D01*
X149335D01*
Y236600D01*
X141235D01*
Y245000D01*
X149335D01*
Y245900D01*
X151350D01*
Y246800D01*
X150200D01*
Y247700D01*
X144500D01*
Y254300D01*
X150200D01*
Y255200D01*
X157800D01*
Y246800D01*
X157035D01*
Y245900D01*
X159435D01*
Y235700D01*
X157035D01*
Y223450D01*
X159502D01*
X159802Y223750D01*
X160450D01*
Y230900D01*
X162100D01*
Y242855D01*
X170072Y250828D01*
G02X174452Y250900I2228J-2228D01*
G01X178300D01*
Y252300D01*
X179200D01*
Y258000D01*
X185800D01*
Y252300D01*
X186700D01*
Y250536D01*
X189845D01*
Y261310D01*
G03X189343Y261696I-400J0D01*
G02Y267304I-743J2804D01*
G03X189845Y267690I102J387D01*
G01Y272325D01*
X184988D01*
X181713Y275600D01*
X172391D01*
G02X167305Y277676I-2191J1900D01*
G03X166906Y278100I-399J24D01*
G01X162391D01*
G02X157617Y281318I-2191J1900D01*
G03X157260Y281900I-356J182D01*
G01X152391D01*
G02X147663Y285206I-2191J1900D01*
G03X147314Y285800I-350J194D01*
G01X55387D01*
X32286Y262699D01*
X32363Y262566D01*
G02X31459Y256414I-4326J-2507D01*
G03Y255830I274J-292D01*
G02X31460Y248540I-3422J-3645D01*
G03Y247956I274J-292D01*
G02Y240666I-3423J-3645D01*
G03Y240082I274J-292D01*
G02Y232792I-3423J-3645D01*
G03Y232208I274J-292D01*
G02Y224918I-3423J-3645D01*
G03Y224334I274J-292D01*
G02Y217044I-3423J-3645D01*
G03Y216460I274J-292D01*
G02X31459Y209170I-3422J-3645D01*
G03Y208586I274J-292D01*
G02X32482Y202650I-3422J-3645D01*
G03X32837Y202067I356J-183D01*
G01X33037D01*
Y192067D01*
X23037D01*
Y192267D01*
G03X22454Y192622I-400J0D01*
G02X16740Y200712I-2291J4445D01*
G03Y201295I-274J292D01*
G02X16741Y208586I3422J3645D01*
G03Y209170I-274J292D01*
G02X16740Y216460I3422J3645D01*
G03Y217044I-274J292D01*
G02Y224334I3423J3645D01*
G03Y224918I-274J292D01*
G02Y232208I3423J3645D01*
G03Y232792I-274J292D01*
G02Y240082I3423J3645D01*
G03Y240666I-274J292D01*
G02X17403Y248480I3422J3645D01*
G03X17447Y249114I-221J334D01*
G02Y255257I2716J3072D01*
G03X17403Y255890I-265J300D01*
G02X16740Y263704I2760J4169D01*
G03Y264288I-274J292D01*
G02X23808Y271356I3423J3645D01*
G03X24392I292J274D01*
G02X31817Y271206I3645J-3423D01*
G03X32402Y271186I302J262D01*
G01X52717Y291500D01*
X194887D01*
X200552Y285835D01*
G03X201235Y286118I283J283D01*
G01Y292346D01*
X202135D01*
Y294000D01*
X200300D01*
Y295800D01*
X187628D01*
G02Y300600I-1628J2400D01*
G01X200300D01*
Y302400D01*
X207300D01*
Y303700D01*
X201600D01*
Y310300D01*
X207300D01*
Y311200D01*
X214900D01*
Y308900D01*
X215287D01*
X217700Y306487D01*
Y296013D01*
X214716Y293028D01*
G03X214998Y292346I283J-283D01*
G01X227725D01*
Y296112D01*
X228006Y296393D01*
X228002Y296481D01*
G02X231672Y293804I2898J119D01*
G01X231525Y293764D01*
Y292346D01*
X236355D01*
Y288446D01*
X248608D01*
G03X248983Y288985I0J400D01*
G02X248802Y290099I2717J1015D01*
G03X248614Y290306I-200J7D01*
G02X250991Y295100I186J2894D01*
G01X411890D01*
X416202Y299413D01*
X416151Y299536D01*
G02X418874Y306404I4895J2033D01*
G03X418710Y307169I-164J365D01*
G01X416646D01*
Y315969D01*
X425446D01*
Y307169D01*
X423381D01*
G03X423217Y306404I0J-400D01*
G02X423591Y296920I-2172J-4835D01*
G03Y296218I192J-351D01*
G02Y286920I-2545J-4649D01*
G03Y286218I192J-351D01*
G02Y276920I-2545J-4649D01*
G03Y276218I192J-351D01*
G02Y266920I-2545J-4649D01*
G03Y266218I192J-351D01*
G02Y256920I-2545J-4649D01*
G03Y256218I192J-351D01*
G02Y246920I-2545J-4649D01*
G03Y246218I192J-351D01*
G02X419013Y236674I-2545J-4649D01*
G01X418889Y236725D01*
X418564Y236400D01*
X328651D01*
X308384Y216132D01*
X251672D01*
G03X251275Y215680I0J-400D01*
G02X251294Y215487I-2875J-380D01*
G01X251306Y215300D01*
X284387D01*
X296500Y203187D01*
Y192600D01*
X299900D01*
Y174300D01*
X303100D01*
Y197000D01*
X301150D01*
Y205748D01*
X300998Y205786D01*
G02X304537Y209203I702J2814D01*
G01X304549Y209145D01*
X305794Y207900D01*
X310400D01*
Y209800D01*
X320500D01*
Y199650D01*
X345802D01*
X345902Y199750D01*
X346300D01*
Y205400D01*
X364900D01*
Y188800D01*
X346300D01*
Y194350D01*
X320500D01*
Y192700D01*
X310400D01*
Y197000D01*
X308600D01*
Y196706D01*
X307900Y196006D01*
Y173628D01*
G02X304030Y169500I-2400J-1628D01*
G01X299900D01*
Y167600D01*
X289300D01*
Y169500D01*
X286200D01*
Y167700D01*
X278600D01*
Y168600D01*
X272900D01*
Y175200D01*
X278600D01*
Y176100D01*
X286200D01*
Y174300D01*
X289300D01*
Y180700D01*
X277013D01*
X268200Y189513D01*
Y189900D01*
X265900D01*
Y191800D01*
X229800D01*
G02X229891Y195700I-2100J2000D01*
G01X231287D01*
X231387Y195600D01*
X265900D01*
Y197400D01*
X253255D01*
X253231Y197393D01*
G02X251769I-731J2807D01*
G01X251745Y197400D01*
X190429D01*
X190399Y197430D01*
X169800D01*
Y185050D01*
X179150D01*
Y186200D01*
X179250D01*
Y190000D01*
X187850D01*
Y184641D01*
X189167Y183324D01*
G03X189850Y183607I283J283D01*
G01Y190000D01*
X198450D01*
Y182900D01*
X197550D01*
Y182400D01*
X198450D01*
Y180750D01*
X215463D01*
X216806Y182093D01*
X216802Y182181D01*
G02X219581Y179402I2898J119D01*
G01X219493Y179406D01*
X217037Y176950D01*
X198450D01*
Y175300D01*
X191450D01*
Y169350D01*
X192600D01*
Y170900D01*
X201000D01*
Y156700D01*
X198950D01*
Y155991D01*
X204684Y150257D01*
G03X205309Y150334I283J283D01*
G02X214499Y150145I4541J-2734D01*
G03X215201I351J192D01*
G02X224499I4649J-2545D01*
G03X225201I351J192D01*
G02X234685Y149772I4649J-2545D01*
G03X235450Y149935I365J164D01*
G01Y152000D01*
X244250D01*
Y143200D01*
X235450D01*
Y145265D01*
G03X234685Y145428I-400J0D01*
G02X225201Y145055I-4835J2172D01*
G03X224499I-351J-192D01*
G02X215201I-4649J2545D01*
G03X214499I-351J-192D01*
G02X205006Y145450I-4649J2545D01*
G01X203409D01*
X194650Y154209D01*
Y156700D01*
X192600D01*
Y165009D01*
X192559Y165050D01*
X189609D01*
X187150Y167509D01*
Y175300D01*
X179250D01*
Y176450D01*
X178544D01*
X178094Y176000D01*
X177800D01*
Y174200D01*
X176400D01*
Y173200D01*
X177800D01*
Y171150D01*
X178991D01*
X187450Y162691D01*
Y153077D01*
X190532D01*
Y142476D01*
X179931D01*
Y145642D01*
G03X179173Y145820I-400J0D01*
G02Y149732I-3941J1956D01*
G03X179931Y149910I358J178D01*
G01Y153077D01*
X183141D01*
X183150Y153086D01*
Y160909D01*
X178483Y165576D01*
G03X177800Y165293I-283J-283D01*
G01Y164800D01*
X170200D01*
Y165700D01*
X164500D01*
Y172300D01*
X170200D01*
Y173200D01*
X171600D01*
Y174200D01*
X163600D01*
Y182600D01*
X165000D01*
Y198275D01*
X162100Y201175D01*
Y211300D01*
X160450D01*
Y218150D01*
X145700D01*
Y216650D01*
X145800D01*
Y207350D01*
X142300D01*
Y203713D01*
X142365Y203648D01*
Y203000D01*
X144765D01*
Y202100D01*
X152865D01*
Y193700D01*
X144765D01*
Y192800D01*
X134665D01*
Y203000D01*
X137000D01*
Y207350D01*
X133500D01*
Y208600D01*
X131792D01*
X130692Y209700D01*
X110600D01*
Y209300D01*
X102908D01*
X101923Y208315D01*
X99500D01*
Y206665D01*
X99234D01*
G03X99092Y206323I0J-200D01*
G01X99600Y205816D01*
Y203900D01*
X101750D01*
Y182248D01*
X103725Y180273D01*
X103991Y180539D01*
Y180589D01*
X105650Y182248D01*
Y203900D01*
X117450D01*
Y205550D01*
X132050D01*
Y191950D01*
X117750D01*
Y178500D01*
X114950D01*
Y176800D01*
X118350D01*
Y186650D01*
X131150D01*
Y175153D01*
X137284D01*
Y178753D01*
X150484D01*
Y164752D01*
X148284D01*
Y161630D01*
X121955Y135300D01*
G37*
G54D59*
X374200Y197100D03*
G54D56*
X139550Y230300D03*
G54D52*
X104000Y150900D03*
G54D53*
X23300Y65823D03*
Y348500D03*
X427237Y65823D03*
Y348500D03*
G54D57*
X143490Y141910D03*
G54D55*
X48710Y194510D03*
G54D54*
X48850Y169350D03*
G54D61*
X423200Y197000D03*
G54D58*
X323900Y137302D03*
G54D60*
X404200Y197100D03*
%LPD*%
G75*
G36*
G01X93194Y338000D02*
X89832Y341363D01*
G02X89891Y341977I283J283D01*
G03X92014Y344887I-2965J4393D01*
G02X92775Y344908I384J-112D01*
G03Y347832I4150J1462D01*
G02X92014Y347853I-377J133D01*
G03X82928Y349850I-5089J-1483D01*
G02X82226Y350112I-302J263D01*
G01Y351670D01*
X79848D01*
G02X79706Y352012I0J200D01*
G01X80094Y352400D01*
X276906D01*
X277800Y351506D01*
Y351175D01*
X277694Y351118D01*
G03X275549Y348992I2504J-4671D01*
G02X274848I-351J192D01*
G03X265549I-4649J-2545D01*
G02X264848I-351J192D01*
G03X255549I-4649J-2545D01*
G02X254847I-351J192D01*
G03X245549I-4649J-2545D01*
G02X244848I-351J192D01*
G03X235549I-4649J-2545D01*
G02X234848I-351J192D01*
G03X225549I-4649J-2545D01*
G02X224848I-351J192D01*
G03X215549I-4649J-2545D01*
G02X214848I-351J192D01*
G03X205549I-4649J-2545D01*
G02X204847I-351J192D01*
G03X195549I-4649J-2545D01*
G02X194848I-351J192D01*
G03X185549I-4649J-2545D01*
G02X184848I-351J192D01*
G03X175549I-4649J-2545D01*
G02X174848I-351J192D01*
G03X165549I-4649J-2545D01*
G02X164848I-351J192D01*
G03X155549I-4649J-2545D01*
G02X154848I-351J192D01*
G03X145549I-4649J-2545D01*
G02X144848I-351J192D01*
G03X135549I-4649J-2545D01*
G02X134848I-351J192D01*
G03X125364Y348618I-4649J-2545D01*
G02X124599Y348782I-365J164D01*
G01Y350847D01*
X115798D01*
Y342047D01*
X124599D01*
Y344112D01*
G02X125364Y344275I400J0D01*
G03X134848Y343902I4835J2172D01*
G02X135549I351J-192D01*
G03X137376Y341961I4649J2545D01*
G02X137445Y341340I-213J-339D01*
G01X134106Y338000D01*
X93194D01*
G37*
G36*
G01X204918Y229009D02*
G03X205900Y228802I1082J2691D01*
G01Y223300D01*
X211600D01*
Y222400D01*
X219200D01*
Y225113D01*
X223417Y229330D01*
G02X224100Y229047I283J-283D01*
G01Y223600D01*
X229800D01*
Y222700D01*
X237400D01*
Y225000D01*
X242287D01*
X246900Y229613D01*
Y235400D01*
X250309D01*
G03X254257Y234993I2191J1900D01*
G02X254900Y234675I242J-318D01*
G01Y234300D01*
X256800D01*
Y232787D01*
X256463Y232450D01*
X251650D01*
Y227050D01*
X251353D01*
X251295Y227105D01*
G03X251014Y222660I-1995J-2105D01*
G02X251650Y222337I236J-323D01*
G01Y219932D01*
X208803D01*
X208784Y220111D01*
G03X203684Y217929I-2883J-311D01*
G01X203731Y217873D01*
Y217600D01*
X203500D01*
Y215300D01*
X197591D01*
G03Y211500I-2191J-1900D01*
G01X203500D01*
Y209800D01*
X203300D01*
Y203200D01*
X192831D01*
X192801Y203230D01*
X168955D01*
X168400Y203785D01*
Y211300D01*
X170050D01*
Y230900D01*
X168400D01*
Y240245D01*
X174255Y246100D01*
X178300D01*
Y244700D01*
X186700D01*
Y246735D01*
X189845D01*
Y245835D01*
X201235D01*
Y235323D01*
X200700Y234787D01*
Y232728D01*
G03X204918Y229009I1638J-2393D01*
G37*
G36*
G01X189845Y280955D02*
X189765Y280922D01*
X185570Y285117D01*
G02X185853Y285800I283J283D01*
G01X192713D01*
X196875Y281638D01*
G02X196592Y280955I-283J-283D01*
G01X189845D01*
G37*
G36*
G01X201446Y262346D02*
Y264445D01*
X205918D01*
G02X206316Y264003I0J-400D01*
G03X206424Y262861I2884J-303D01*
G02X206041Y262346I-383J-116D01*
G01X201446D01*
G37*
G36*
G01Y274155D02*
Y276900D01*
X207110D01*
X207138Y276732D01*
G03X208204Y274923I2862J468D01*
G02X208239Y274326I-248J-314D01*
G01X208068Y274155D01*
X201446D01*
G37*
G36*
G01X217500Y207500D02*
Y209200D01*
X217700D01*
Y211500D01*
X219875D01*
Y207500D01*
X217500D01*
G37*
G36*
G01X208626Y230470D02*
G03X207965Y233833I-2626J1230D01*
G01X207900Y233893D01*
Y234445D01*
X222192D01*
G02X222475Y233762I0J-400D01*
G01X219421Y230709D01*
X219200Y230800D01*
X211600D01*
Y229900D01*
X208989D01*
G02X208626Y230470I0J400D01*
G37*
G36*
G01X215268Y251227D02*
G03X215970Y251929I-1668J2373D01*
G03X219291Y252700I1130J2671D01*
G01X222587D01*
X230403Y260515D01*
X236145D01*
Y250500D01*
X215498D01*
G02X215268Y251227I0J400D01*
G37*
G36*
G01X205936Y292346D02*
Y294000D01*
X207900D01*
Y294900D01*
X210247D01*
G02X210530Y294217I0J-400D01*
G01X210005Y293692D01*
Y292346D01*
X205936D01*
G37*
G36*
G01X207900Y301500D02*
Y302800D01*
X213900D01*
Y301500D01*
X207900D01*
G37*
G36*
G01X245525Y215680D02*
G03X248519Y212402I2875J-380D01*
G01X248607Y212406D01*
X249513Y211500D01*
X282813D01*
X292700Y201613D01*
Y195800D01*
X284800D01*
Y197600D01*
X288600D01*
G03Y203400I0J2900D01*
G01X284800D01*
Y204300D01*
X276400D01*
Y203400D01*
X275399D01*
X275199Y203200D01*
X274300D01*
Y204100D01*
X265900D01*
Y203200D01*
X235575D01*
Y216132D01*
X245128D01*
G02X245525Y215680I0J-400D01*
G37*
G36*
G01X242155Y230972D02*
G03X239481Y232498I-2555J-1372D01*
G01X239393Y232494D01*
X238187Y233700D01*
X233587D01*
X233525Y233762D01*
G02X233808Y234445I283J283D01*
G01X236355D01*
Y236192D01*
G02X237038Y236475I400J0D01*
G01X238113Y235400D01*
X243100D01*
Y231187D01*
X242791Y230878D01*
G02X242155Y230972I-283J283D01*
G37*
G36*
G01X226030Y280745D02*
X227876Y278900D01*
X236145D01*
Y276125D01*
X224166D01*
G02X223770Y276583I0J400D01*
G03X221812Y279753I-2870J417D01*
G01X221675Y279798D01*
Y280745D01*
X226030D01*
G37*
G36*
G01X226475Y270216D02*
X226442Y270376D01*
G03X225819Y271667I-2842J-576D01*
G02X226125Y272325I306J258D01*
G01X229808D01*
G02X230207Y271898I0J-400D01*
G03X230361Y270747I2893J-198D01*
G02X229983Y270216I-378J-131D01*
G01X226475D01*
G37*
G36*
G01X254257Y239607D02*
G03X250309Y239200I-1757J-2307D01*
G01X239687D01*
X238870Y240017D01*
G02X239153Y240700I283J283D01*
G01X254900D01*
Y239925D01*
G02X254257Y239607I-400J0D01*
G37*
G36*
G01X255725Y247500D02*
G02X255334Y247985I0J400D01*
G03X250340Y250536I-2834J615D01*
G01X247746D01*
Y254605D01*
X256708D01*
X258013Y253300D01*
X259600D01*
Y248600D01*
X276800D01*
Y253713D01*
X277487Y254400D01*
X278400D01*
Y248700D01*
X285000D01*
Y254400D01*
X285900D01*
Y262000D01*
X277500D01*
Y259787D01*
X277142Y259429D01*
G02X276800Y259570I-141J141D01*
G01Y261800D01*
X260100D01*
Y263600D01*
X276800D01*
Y264600D01*
X285600D01*
Y272200D01*
X284700D01*
Y277900D01*
X278100D01*
Y272200D01*
X276800D01*
Y276800D01*
X259200D01*
Y281700D01*
X408228D01*
X416202Y273725D01*
X416151Y273602D01*
G03X418005Y267228I4895J-2033D01*
G02X417775Y266500I-229J-328D01*
G01X386700D01*
Y268800D01*
X378300D01*
Y270200D01*
X380200D01*
Y271100D01*
X385900D01*
Y277700D01*
X380200D01*
Y278600D01*
X372600D01*
Y270200D01*
X374500D01*
Y268800D01*
X372500D01*
Y266087D01*
X372413Y266000D01*
X371000D01*
Y268300D01*
X356800D01*
Y261100D01*
X344528D01*
G03Y256300I-1628J-2400D01*
G01X356600D01*
Y249200D01*
X364002D01*
G02X364328Y248570I0J-400D01*
G03X363898Y247649I2372J-1669D01*
G01X363858Y247500D01*
X255725D01*
G37*
G36*
G01X251219Y264371D02*
G03X248334Y264458I-1519J-2471D01*
G02X247746Y264811I-188J353D01*
G01Y270354D01*
X251700D01*
Y268900D01*
X254000D01*
Y268387D01*
X252700Y267087D01*
Y265991D01*
G03X251813Y264601I1900J-2191D01*
G02X251219Y264371I-384J111D01*
G37*
G36*
G01X264250Y219932D02*
Y232450D01*
X260600D01*
Y234300D01*
X262500D01*
Y235200D01*
X268200D01*
Y240700D01*
X372377D01*
X372417Y240740D01*
G02X373100Y240457I283J-283D01*
G01Y240200D01*
X327077D01*
X306809Y219932D01*
X287750D01*
Y231550D01*
X276950D01*
Y219932D01*
X264250D01*
G37*
G36*
G01X278587Y184500D02*
X273870Y189217D01*
G02X274153Y189900I283J283D01*
G01X274300D01*
Y197400D01*
X276400D01*
Y190100D01*
X284800D01*
Y192000D01*
X289300D01*
Y184500D01*
X278587D01*
G37*
G36*
G01X319500Y166997D02*
Y167700D01*
X322900D01*
Y172747D01*
G02X323583Y173030I400J0D01*
G01X324100Y172513D01*
Y166997D01*
X319500D01*
G37*
G36*
G01X416331Y254871D02*
X415202Y256000D01*
X387200D01*
Y258300D01*
X373000D01*
Y256000D01*
X371513D01*
X371483Y255970D01*
G02X370800Y256253I-283J283D01*
G01Y257600D01*
X369674D01*
G02X369302Y258146I0J400D01*
G03X369488Y259464I-2702J1054D01*
G02X369887Y259900I398J36D01*
G01X371000D01*
Y262200D01*
X372500D01*
Y260400D01*
X386700D01*
Y262700D01*
X415393D01*
G02X415789Y262248I0J-400D01*
G03X418501Y256920I5256J-680D01*
G02Y256218I-192J-351D01*
G03X416925Y254902I2545J-4649D01*
G02X416331Y254871I-311J252D01*
G37*
G36*
G01X380700Y240200D02*
Y240800D01*
X386400D01*
Y247400D01*
X380700D01*
Y248300D01*
X378700D01*
Y249900D01*
X387200D01*
Y252200D01*
X413627D01*
X416062Y249766D01*
G03X418501Y246920I4984J1803D01*
G02Y246218I-192J-351D01*
G03X415823Y240668I2545J-4649D01*
G02X415428Y240200I-394J-68D01*
G01X380700D01*
G37*
G36*
G01X415184Y280118D02*
X411340Y283962D01*
G02X411622Y284645I283J283D01*
G01X415283D01*
X416202Y283725D01*
X416151Y283602D01*
G03X415858Y280483I4895J-2033D01*
G02X415184Y280118I-392J-82D01*
G37*
G54D10*
X23300Y65823D03*
Y348500D03*
X427237Y65823D03*
Y348500D03*
G54D11*
X20163Y197067D03*
Y204941D03*
Y212815D03*
Y220689D03*
Y228563D03*
Y236437D03*
Y244311D03*
Y252185D03*
Y260059D03*
Y267933D03*
X28037Y212815D03*
Y204941D03*
Y236437D03*
Y228563D03*
Y220689D03*
Y252185D03*
Y244311D03*
Y267933D03*
Y260059D03*
G54D20*
X95700Y191200D03*
X111700D03*
G54D12*
X35200Y172000D03*
X24300Y326600D03*
X37300Y143100D03*
X43000Y160700D03*
X37800Y189800D03*
X51600Y319700D03*
X60800Y188800D03*
X60700Y201700D03*
X55000Y225300D03*
Y246500D03*
Y267700D03*
Y310000D03*
Y331200D03*
X54900Y347600D03*
X77600Y224400D03*
Y229100D03*
Y219700D03*
X76200Y310000D03*
Y331200D03*
X97400Y246500D03*
Y267700D03*
Y331200D03*
X118600Y246500D03*
Y267700D03*
Y310000D03*
X109000Y341500D03*
X129100Y160100D03*
X136000Y182000D03*
X124400Y231400D03*
X143490Y130490D03*
X139800Y267700D03*
X147400Y258400D03*
X150200Y283800D03*
X139800Y310000D03*
Y331200D03*
X160200Y280000D03*
X170200Y277500D03*
X181300Y217100D03*
X179800Y231400D03*
X172300Y248600D03*
X182500Y261500D03*
X188600Y264500D03*
X186000Y298200D03*
X195400Y213400D03*
X202338Y230335D03*
X205900Y219800D03*
X206000Y231700D03*
X203800Y249000D03*
X189600Y307000D03*
X193400Y326300D03*
X219700Y182300D03*
X213600Y253600D03*
X209500Y253800D03*
X217100Y254600D03*
X217500Y258600D03*
X212200Y261100D03*
X209200Y263700D03*
X217600Y269800D03*
X220700Y272800D03*
X210000Y277200D03*
X212900Y279800D03*
X215700Y273035D03*
X220900Y277000D03*
X227700Y193800D03*
X232100Y220900D03*
X239600Y229600D03*
X227700Y232000D03*
X223600Y269800D03*
X233100Y271700D03*
X237800Y295400D03*
X230900Y296600D03*
X245800Y138600D03*
X249400Y184400D03*
X252500Y200200D03*
X242200Y209400D03*
X248400Y215300D03*
X247800Y221100D03*
X240500Y234200D03*
X249300Y225000D03*
X244100Y240100D03*
X252500Y248600D03*
Y237300D03*
X250400Y267000D03*
X254600Y263800D03*
X249700Y261900D03*
X248795Y276195D03*
X251700Y280000D03*
X248800Y293200D03*
X251700Y290000D03*
X245700Y310000D03*
X266100Y171900D03*
X266800Y182900D03*
X269400Y231400D03*
X273400Y279300D03*
X266800Y310000D03*
Y331200D03*
X288600Y200500D03*
X288000Y310000D03*
Y331200D03*
X297400Y136700D03*
X305500Y172000D03*
X301700Y208600D03*
X294000Y228500D03*
X297700Y251600D03*
X296600Y279200D03*
X312000Y139900D03*
X320700Y264600D03*
X309200Y267700D03*
Y310000D03*
Y331200D03*
X335900Y148600D03*
X327300Y188300D03*
X330400Y204100D03*
Y225300D03*
Y267700D03*
Y310000D03*
Y331200D03*
X330600Y352600D03*
X351600Y140600D03*
Y161800D03*
Y182900D03*
X346800Y176300D03*
X351600Y225300D03*
X342900Y258700D03*
X351600Y310000D03*
Y331200D03*
Y352400D03*
X372700Y140600D03*
X366700Y246900D03*
X366600Y259200D03*
X372700Y310000D03*
Y331200D03*
Y352400D03*
X388600Y178000D03*
X387900Y210100D03*
X391200Y274400D03*
X405300Y244800D03*
X404200Y259200D03*
X430700Y211600D03*
X436700Y205500D03*
G54D21*
X94400Y211715D03*
Y220715D03*
G54D30*
X204036Y240245D03*
Y286545D03*
X205995Y240245D03*
X207965D03*
X209936D03*
X211905D03*
X213875D03*
X215845D03*
X217815D03*
X219775D03*
X221745D03*
Y286545D03*
X219775D03*
X217815D03*
X215845D03*
X213875D03*
X211905D03*
X209936D03*
X207965D03*
X205995D03*
X223715Y240245D03*
X225686D03*
X227655D03*
X229625D03*
X231595D03*
X233555D03*
Y286545D03*
X231595D03*
X229625D03*
X227655D03*
X225686D03*
X223715D03*
G54D13*
X28037Y197067D03*
G54D40*
X374200Y197100D03*
G54D31*
X224325Y205600D03*
X232025D03*
X224325Y213400D03*
X232025D03*
G54D22*
X124750Y180750D03*
Y198750D03*
G54D50*
G01X165250Y221100D02*
Y202480D01*
X167400Y200330D01*
G01X165250Y221100D02*
Y241550D01*
X172300Y248600D01*
G54D14*
X27876Y302968D03*
X64232Y148676D03*
X76926Y346370D03*
X120198Y346447D03*
X185232Y147776D03*
X239850Y147600D03*
X291950D03*
X421046Y311569D03*
G54D23*
X139650Y212000D03*
X139550Y220800D03*
Y230300D03*
G54D41*
X404200Y197100D03*
G54D32*
X257950Y225150D03*
X282350D03*
G54D51*
G01X3600Y44200D02*
Y367700D01*
X448500D01*
Y44200D01*
X3600D01*
G54D42*
G01X182500Y255100D02*
X30496D01*
X29611Y255985D01*
X23963D01*
X20163Y252185D01*
G01X207965Y286545D02*
Y281765D01*
X206800Y280600D01*
X203100D01*
X194100Y289600D01*
X53504D01*
X31837Y267933D01*
X28037D01*
G01X209936Y286545D02*
X209935D01*
Y281135D01*
X207600Y278800D01*
X202400D01*
X193500Y287700D01*
X54600D01*
X30759Y263859D01*
X24237D01*
X20163Y267933D01*
G01X48850Y169350D02*
Y163250D01*
X46300Y160700D01*
G01D02*
X43000D01*
G01X48850Y169350D02*
X37850D01*
G01D02*
X35200Y172000D01*
G01X48710Y194510D02*
X54510D01*
G01X48710D02*
X42510D01*
G01D02*
X37800Y189800D01*
G01X45800Y309700D02*
Y313900D01*
G01D02*
X51600Y319700D01*
G01X54510Y194510D02*
X60700Y200700D01*
G01X54510Y194510D02*
X55090D01*
G01D02*
X60800Y188800D01*
G01X60700Y200700D02*
Y201700D01*
G01X53500Y241600D02*
Y241500D01*
G01X96926Y346370D02*
X104130D01*
G01X119000Y157700D02*
X126700D01*
G01X124300Y240800D02*
X118600Y246500D01*
G01X104130Y346370D02*
X116022D01*
X116098Y346447D01*
X120198D01*
G01X104130Y346370D02*
X109000Y341500D01*
G01X126700Y157700D02*
X129100Y160100D01*
G01X124750Y180750D02*
X134750D01*
G01D02*
X136000Y182000D01*
G01X139550Y230300D02*
X125500D01*
G01D02*
X124400Y231400D01*
G01X145385Y240800D02*
X124300D01*
G01X143490Y141910D02*
Y130490D01*
G01X147400Y251000D02*
Y258400D01*
G01X150200Y283800D02*
X184200D01*
X189845Y278155D01*
X195645D01*
G01X160200Y280000D02*
X184900D01*
X188705Y276195D01*
X195645D01*
G01X170200Y277500D02*
X182500D01*
X185775Y274225D01*
X195645D01*
G01X179800Y231400D02*
X184600Y226600D01*
G01D02*
X208800D01*
G01X172300Y248597D02*
Y248600D01*
G01X195645Y248636D02*
Y248635D01*
X182500D01*
Y248500D01*
G01Y255100D02*
X186541D01*
G01X182500D02*
Y261500D01*
G01X186541Y255100D02*
X191045Y250595D01*
X195645D01*
G01X219700Y182300D02*
X216250Y178850D01*
X194150D01*
G01X195400Y213400D02*
X207300D01*
G01X202338Y230335D02*
X202600D01*
Y234000D01*
X204035Y235435D01*
Y240245D01*
X204036D01*
G01X203800Y249000D02*
X202032Y250768D01*
Y250778D01*
X200245Y252565D01*
X195645D01*
G01X213600Y253600D02*
X206755Y260445D01*
X195645D01*
G01X209500Y253800D02*
X204825Y258475D01*
X195645D01*
G01X366700Y246900D02*
X365400Y245600D01*
X238300D01*
X235300Y248600D01*
X210800D01*
X202895Y256505D01*
X195645D01*
G01X371600Y253400D02*
Y242610D01*
X371590Y242600D01*
X237200D01*
X233900Y245900D01*
X210800D01*
X202165Y254535D01*
X195645D01*
Y254536D01*
G01X223600Y269800D02*
X220145Y266345D01*
X195645D01*
G01Y264375D02*
X188725Y264375D01*
X188600Y264500D01*
G01X195645Y270286D02*
Y270285D01*
X212950D01*
X215700Y273035D01*
G01X195645Y268315D02*
X213615D01*
X215100Y269800D01*
X217600D01*
G01X195645Y272255D02*
X208855Y272255D01*
X212135Y275535D01*
X219635D01*
X220900Y276800D01*
Y277000D01*
G01X204100Y298200D02*
Y295200D01*
X204035Y295135D01*
Y286545D01*
X204036D01*
G01X204500Y307000D02*
X189600D01*
G01X207100Y205600D02*
Y200300D01*
G01X213900Y213400D02*
X224325D01*
G01Y205600D02*
X213700D01*
G01X215400Y226600D02*
X218000D01*
X225685Y234285D01*
Y240245D01*
X225686D01*
G01X205900Y219800D02*
X207668Y218032D01*
X307596D01*
X327864Y238300D01*
X417777D01*
X421046Y241569D01*
G01X205995Y240245D02*
Y234205D01*
X206000Y234200D01*
Y231700D01*
G01X217100Y254600D02*
X221800D01*
X229615Y262415D01*
X241945D01*
G01X217500Y258600D02*
X222600D01*
X228375Y264375D01*
X241945D01*
G01X212200Y261100D02*
X222000D01*
X227245Y266345D01*
X241945D01*
G01Y268315D02*
X226015D01*
X221400Y263700D01*
X209200D01*
G01X241945Y274225D02*
X224625D01*
X223200Y272800D01*
X220700D01*
G01X210000Y277200D02*
X216950D01*
X219775Y280025D01*
Y286545D01*
G01X217815D02*
Y281945D01*
X215670Y279800D01*
X212900D01*
G01X210700Y298200D02*
Y301200D01*
X209700Y302200D01*
G01X205995Y286545D02*
Y293495D01*
G01X209700Y302200D02*
X206300D01*
X204500Y304000D01*
Y307000D01*
G01X205995Y293495D02*
X208022Y295522D01*
X208422D01*
X210700Y297800D01*
Y298200D01*
G01X211100Y307000D02*
X214500D01*
X215800Y305700D01*
Y296800D01*
X211905Y292905D01*
Y291146D01*
X211905Y291145D01*
Y286545D01*
G01X227700Y193800D02*
X230500D01*
X230600Y193700D01*
X270100D01*
G01X232025Y205600D02*
X238400D01*
G01X232025Y213400D02*
X238200D01*
G01D02*
X242200Y209400D01*
G01X231595Y240245D02*
Y235645D01*
X233041Y234200D01*
X240500D01*
G01X232100Y220900D02*
X230000D01*
G01D02*
X227000Y223900D01*
Y226900D01*
G01X245000Y237300D02*
Y230400D01*
X241500Y226900D01*
X233600D01*
G01X239600Y229600D02*
X237400Y231800D01*
X232800D01*
X229625Y234975D01*
Y240245D01*
G01X227700Y232000D02*
Y234500D01*
X227655Y234545D01*
Y240245D01*
G01X245000Y237300D02*
X238900D01*
X235955Y240245D01*
X233555D01*
G01X241945Y272255D02*
X236155Y272255D01*
X235600Y271700D01*
X233100D01*
G01X227655Y286545D02*
X227655Y281808D01*
X228663Y280800D01*
X236000D01*
X238800Y283600D01*
X409015D01*
X421046Y271569D01*
G01X231595Y286545D02*
Y291145D01*
X235850Y295400D01*
G01D02*
X237800D01*
G01X230900Y296600D02*
X229625Y295325D01*
Y286545D01*
G01X233555D02*
X416070D01*
X421046Y281569D01*
G01X239850Y147600D02*
X245800Y141650D01*
G01D02*
Y138600D01*
G01X252501Y200300D02*
X252500Y200299D01*
Y200200D01*
G01X242200Y209400D02*
X242300D01*
G01X238400Y205600D02*
X242200Y209400D01*
G01X248400Y215300D02*
X250300Y213400D01*
X283600D01*
X294600Y202400D01*
Y193900D01*
G01X249300Y225000D02*
X251800D01*
X251900Y225100D01*
X252200D01*
X252250Y225150D01*
X257950D01*
G01X252500Y237300D02*
X245000D01*
G01X241945Y248636D02*
Y248635D01*
X249965D01*
X250000Y248600D01*
X252500D01*
G01X241945Y270286D02*
X247114D01*
X250400Y267000D01*
G01X255900Y272700D02*
Y267600D01*
X254600Y266300D01*
Y263800D01*
G01X241945Y260445D02*
X248245D01*
X249700Y261900D01*
G01X268200Y270200D02*
X259500D01*
X258200Y268900D01*
Y260700D01*
X255975Y258475D01*
X241945D01*
G01X268200Y255200D02*
X258800D01*
X257495Y256505D01*
X241945D01*
G01X255900Y272700D02*
X252900D01*
X252455Y272255D01*
X241945D01*
G01Y276195D02*
X248795D01*
G01X251700Y280000D02*
X249064D01*
X247219Y278155D01*
X241945D01*
G01X248800Y293200D02*
X412677D01*
X421046Y301569D01*
G01X251700Y290000D02*
X415377D01*
X416946Y291569D01*
X421046D01*
G01X275800Y171900D02*
X266100D01*
G01X294600Y182600D02*
X277800D01*
X270100Y190300D01*
Y193700D01*
G01X265300Y238500D02*
Y235500D01*
X269400Y231400D01*
G01X258700Y238500D02*
Y232000D01*
X257950Y231250D01*
Y225150D01*
G01X268200Y255200D02*
X275600D01*
X278600Y258200D01*
X281700D01*
G01X255900Y279300D02*
X273400D01*
G01X281400Y268400D02*
X277400D01*
X275600Y270200D01*
X268200D01*
G01X294600Y193900D02*
X280600D01*
G01X282350Y225150D02*
X290650D01*
G01X281700Y251600D02*
X297700D01*
G01X281400Y275000D02*
X292400D01*
G01X294600Y188300D02*
Y193900D01*
G01X290650Y225150D02*
X294000Y228500D01*
G01X292400Y275000D02*
X296600Y279200D01*
G01X312000Y155700D02*
Y139900D01*
G01Y162300D02*
X312104Y162196D01*
X317600D01*
G01D02*
X321735D01*
G01X317600D02*
X317600Y162197D01*
Y172000D01*
G01X326065Y162196D02*
Y165796D01*
X326000Y165861D01*
Y173300D01*
X321700Y177600D01*
X317600D01*
G01Y188300D02*
X327300D01*
G01X335900Y155600D02*
Y148600D01*
G01X326065Y162196D02*
X332896Y162196D01*
X332900Y162200D01*
X335900D01*
G01X376300Y264600D02*
X373700D01*
X373200Y264100D01*
X367200D01*
G01D02*
X366200D01*
X366600Y263700D01*
Y259200D01*
G01X376800Y254100D02*
X372300D01*
X371600Y253400D01*
G01D02*
X367000D01*
G01X383500Y244100D02*
X404600D01*
G01X376800Y254100D02*
Y247200D01*
X376900Y247100D01*
Y244100D01*
G01X376400Y274400D02*
Y267700D01*
X376300Y267600D01*
Y264600D01*
G01X383400Y254100D02*
X414415D01*
X416946Y251569D01*
X421046D01*
G01X382900Y264600D02*
X418015D01*
X421046Y261569D01*
G01X383000Y274400D02*
X391200D01*
G01X404600Y244100D02*
X405300Y244800D01*
G01X423200Y197000D02*
Y204100D01*
X430700Y211600D01*
G01X423200Y197000D02*
X431300D01*
X436700Y202400D01*
G01D02*
Y205500D01*
G54D24*
X143490Y141910D03*
X143884Y171752D03*
G54D15*
G01D02*
X143884Y163452D01*
X120132Y139700D01*
X86100D01*
X77124Y148676D01*
X64232D01*
G01X66850Y169350D02*
Y157895D01*
X64232Y155276D01*
Y148676D01*
X27876Y312968D03*
X54232Y148676D03*
X86926Y346370D03*
X96926D03*
X130198Y346447D03*
X150198D03*
X140198D03*
X170198D03*
X160198D03*
X175232Y147776D03*
X190198Y346447D03*
X180198D03*
X200198D03*
X219850Y147600D03*
X209850D03*
X220198Y346447D03*
X210198D03*
X229850Y147600D03*
X240198Y346447D03*
X230198D03*
X250198D03*
X271950Y147600D03*
X261950D03*
X270198Y346447D03*
X260198D03*
X281950Y147600D03*
X290198Y346447D03*
X280198D03*
X300198D03*
X310198D03*
X421046Y241569D03*
Y251569D03*
Y261569D03*
Y271569D03*
Y281569D03*
Y291569D03*
Y301569D03*
G54D33*
X268200Y255200D03*
Y270200D03*
G54D43*
G01X27876Y302968D02*
X42168D01*
X42300Y303100D01*
X45800D01*
G01X280198Y346447D02*
X280200Y346449D01*
Y352500D01*
X277900Y354800D01*
X79100D01*
X76926Y352626D01*
Y346370D01*
G01X140198Y346447D02*
X140400Y346245D01*
Y340900D01*
X135100Y335600D01*
X92200D01*
X86926Y340874D01*
Y346370D01*
G01X183450Y182650D02*
X167450D01*
X167400Y182700D01*
G01D02*
Y178400D01*
G01Y182700D02*
Y200330D01*
G01X174000Y178400D02*
Y169000D01*
G01X183550Y178850D02*
X177550D01*
X177100Y178400D01*
X174000D01*
G01X182500Y248500D02*
X172396D01*
X172300Y248597D01*
G01X204100Y298200D02*
X186000D01*
G01X294600Y171900D02*
X282400D01*
G01X305500Y172000D02*
Y197000D01*
X306200Y197700D01*
Y201300D01*
G01X305500Y172000D02*
X305400Y171900D01*
X294600D01*
G01X315450Y205500D02*
X304800D01*
X301700Y208600D01*
G01X360400Y258700D02*
X342900D01*
G01X360600Y264100D02*
X360400Y263900D01*
Y258700D01*
G01D02*
Y253400D01*
G54D25*
X148715Y197900D03*
X139715D03*
X145385Y240800D03*
X154385D03*
G54D34*
X294600Y171900D03*
Y188300D03*
X317600Y172000D03*
Y188300D03*
G54D16*
X48850Y169350D03*
X66850D03*
G54D44*
G01X119000Y164300D02*
Y171205D01*
X119548Y171752D01*
G01D02*
X117400Y173900D01*
X111400D01*
G01X167400Y200330D02*
X191600D01*
X191630Y200300D01*
X207100D01*
G01D02*
X252501D01*
G01X270100D02*
X252501D01*
G01X270100D02*
X276400D01*
X276600Y200500D01*
X280600D01*
G01D02*
X288600D01*
G54D17*
X48710Y194510D03*
X78552Y194116D03*
G54D26*
X154000Y251000D03*
X147400D03*
X167400Y178400D03*
Y169000D03*
X174000Y178400D03*
Y169000D03*
X204100Y298200D03*
X204500Y307000D03*
X207100Y205600D03*
X213700D03*
X207300Y213400D03*
X213900D03*
X215400Y226600D03*
X208800D03*
X210700Y298200D03*
X211100Y307000D03*
X227000Y226900D03*
X233600D03*
X258700Y238500D03*
X265300D03*
X275800Y171900D03*
X282400D03*
X360400Y253400D03*
X367000D03*
X360600Y264100D03*
X367200D03*
X383500Y244100D03*
X376900D03*
X376800Y254100D03*
X383400D03*
X376300Y264600D03*
X382900D03*
X383000Y274400D03*
X376400D03*
G54D35*
X294600Y177600D03*
Y182600D03*
X317600D03*
Y177600D03*
G54D45*
G01X94400Y211715D02*
X85585D01*
X77600Y219700D01*
G01D02*
Y224400D01*
G01D02*
Y229100D01*
G01X94400Y211715D02*
X100515D01*
X101900Y213100D01*
X106400D01*
G01X143884Y171752D02*
X119548D01*
G01X106400Y213100D02*
X132100D01*
X133200Y212000D01*
X139650D01*
G54D18*
X45800Y303100D03*
Y309700D03*
X119000Y164300D03*
Y157700D03*
X106400Y213100D03*
Y219700D03*
X182500Y248500D03*
Y255100D03*
X196800Y167100D03*
Y160500D03*
X255900Y279300D03*
Y272700D03*
X270100Y193700D03*
Y200300D03*
X280600Y193900D03*
Y200500D03*
X281700Y251600D03*
X281400Y268400D03*
X281700Y258200D03*
X281400Y275000D03*
X312000Y162300D03*
Y155700D03*
X335900Y162200D03*
Y155600D03*
G54D36*
X306200Y201300D03*
X315450Y197000D03*
Y205500D03*
G54D27*
X165250Y221100D03*
G54D46*
G01X95700Y191200D02*
X88768D01*
X85852Y194116D01*
X78552D01*
G01X94400Y211715D02*
Y205500D01*
X95700Y204200D01*
Y191200D01*
G54D37*
X323900Y137302D03*
G54D19*
X101500Y150900D03*
X96500D03*
Y173900D03*
X101500D03*
X111500Y150900D03*
X106500D03*
Y173900D03*
X111400D03*
G54D28*
X183450Y182650D03*
X183550Y178850D03*
Y186450D03*
X194150Y178850D03*
Y182650D03*
Y186450D03*
G54D47*
G01X185232Y147776D02*
Y152126D01*
X185300Y152195D01*
Y161800D01*
X178100Y169000D01*
X174000D01*
G01X196800Y167100D02*
X193550D01*
X193450Y167200D01*
X190500D01*
X189300Y168400D01*
Y180150D01*
X186800Y182650D01*
X183450D01*
G01X209850Y147600D02*
X204300D01*
X196800Y155100D01*
Y160500D01*
G54D38*
X321735Y162196D03*
X326065D03*
G54D29*
X195645Y250595D03*
Y248636D03*
Y268315D03*
Y266345D03*
Y264375D03*
Y262415D03*
Y260445D03*
Y258475D03*
Y256505D03*
Y254536D03*
Y252565D03*
Y278155D03*
Y276195D03*
Y274225D03*
Y272255D03*
Y270286D03*
X241945Y248636D03*
Y250595D03*
Y252565D03*
Y254536D03*
Y256505D03*
Y258475D03*
Y260445D03*
Y262415D03*
Y264375D03*
Y266345D03*
Y268315D03*
Y270286D03*
Y272255D03*
Y274225D03*
Y276195D03*
Y278155D03*
G54D48*
G01X101500Y173900D02*
Y178750D01*
X95700Y184550D01*
Y191200D01*
G01X106500Y173900D02*
Y179300D01*
X106642Y179442D01*
Y179492D01*
X111700Y184550D01*
Y191200D01*
G01X124750Y198750D02*
X117900D01*
X117850Y198700D01*
X116900D01*
X111700Y193500D01*
Y191200D01*
G01X139650Y212000D02*
Y202615D01*
X139715Y202550D01*
Y197900D01*
G01X139550Y220800D02*
X154000D01*
G01D02*
X160600D01*
X160900Y221100D01*
X165250D01*
G01X154385Y240800D02*
Y221185D01*
X154000Y220800D01*
G01Y251000D02*
Y245835D01*
X154385Y245450D01*
Y240800D01*
G01X315450Y197000D02*
X346900D01*
X347000Y197100D01*
X355600D01*
G54D39*
D03*
X423200Y197000D03*
G54D49*
G01X15863Y252185D02*
X20163D01*
G01X27876Y312968D02*
Y317569D01*
G01X23276Y312968D02*
X27876D01*
G01D02*
X32477D01*
G01X49631Y148676D02*
X54232D01*
G01X48850Y169350D02*
Y175950D01*
G01Y169350D02*
X54950D01*
G01X48710Y188609D02*
Y194510D01*
G01D02*
Y200410D01*
G01X42300Y309700D02*
X45800D01*
G01D02*
X49300D01*
G01X54232Y144076D02*
Y148676D01*
G01D02*
Y153277D01*
G01X101500Y146300D02*
Y150900D01*
G01X96500Y146300D02*
Y150900D01*
G01X101500D02*
Y155500D01*
G01X96500Y150900D02*
Y155500D01*
G01X93650Y150900D02*
X96500D01*
G01Y169300D02*
Y173900D01*
G01X93650D02*
X96500D01*
G01X94400Y220715D02*
Y225065D01*
G01X90000Y220715D02*
X94400D01*
G01D02*
X98800D01*
G01X96926Y341770D02*
Y346370D01*
G01D02*
Y350970D01*
G01X111500Y146300D02*
Y150900D01*
G01X106500Y146300D02*
Y150900D01*
G01X119000Y154600D02*
Y157700D01*
G01X115500D02*
X119000D01*
G01X111500Y150900D02*
Y155500D01*
G01Y150900D02*
X114350D01*
G01X106500D02*
Y155500D01*
G01X118150Y180750D02*
X124750D01*
G01X106400Y219700D02*
Y222800D01*
G01X102900Y219700D02*
X106400D01*
G01D02*
X109900D01*
G01X124750Y180750D02*
Y186850D01*
G01X120198Y341847D02*
Y346447D01*
G01D02*
Y351047D01*
G01X143490Y141910D02*
Y148210D01*
G01X137590Y141910D02*
X143490D01*
G01D02*
X149391D01*
G01X148715Y193500D02*
Y197900D01*
G01D02*
Y202300D01*
G01Y197900D02*
X153065D01*
G01X139550Y226350D02*
Y230300D01*
G01D02*
Y234250D01*
G01Y230300D02*
X145000D01*
G01X145385Y236400D02*
Y240800D01*
G01D02*
Y245200D01*
G01X147400Y247500D02*
Y251000D01*
G01X144300D02*
X147400D01*
G01X167400Y165500D02*
Y169000D01*
G01D02*
Y172500D01*
G01X164300Y169000D02*
X167400D01*
G01X175232Y143176D02*
Y147776D01*
G01D02*
Y152377D01*
G01X170631Y147776D02*
X175232D01*
G01X194150Y182650D02*
X197750D01*
G01X204500Y307000D02*
Y310500D01*
G01X208800Y223100D02*
Y226600D01*
G01D02*
Y230100D01*
G01X223900Y226900D02*
X227000D01*
G01X239850Y143000D02*
Y147600D01*
G01D02*
Y152200D01*
G01Y147600D02*
X244450D01*
G01X265300Y238500D02*
X268400D01*
G01X275800Y168400D02*
Y171900D01*
G01D02*
Y175400D01*
G01X282350Y225150D02*
Y231750D01*
G01X276750Y225150D02*
X282350D01*
G01X281700Y248500D02*
Y251600D01*
G01X278200D02*
X281700D01*
G01X281400Y275000D02*
Y278100D01*
G01X277900Y275000D02*
X281400D01*
G01X291950Y143000D02*
Y147600D01*
G01D02*
Y152200D01*
G01Y147600D02*
X296550D01*
G01X319550Y137302D02*
X323900D01*
G01X308500Y155700D02*
X312000D01*
G01D02*
X315500D01*
G01X317600Y188300D02*
Y191900D01*
G01X313000Y188300D02*
X317600D01*
G01X323900Y133352D02*
Y137302D01*
G01D02*
Y141252D01*
G01Y137302D02*
X328250D01*
G01X332400Y155600D02*
X335900D01*
G01D02*
X339400D01*
G01X383500Y240600D02*
Y244100D01*
G01D02*
Y247600D01*
G01X383000Y270900D02*
Y274400D01*
G01D02*
Y277900D01*
G01X423200Y189400D02*
Y197000D01*
G01X414600D02*
X423200D01*
G01X421046Y311569D02*
Y316169D01*
G01X416446Y311569D02*
X421046D01*
G01D02*
X425646D01*
M02*
