G04 ================== begin FILE IDENTIFICATION RECORD ==================*
G04 Layout Name:  KEY_20170306.brd*
G04 Film Name:    BOTTOM*
G04 File Format:  Gerber RS274X*
G04 File Origin:  Cadence Allegro 16.6-P004*
G04 Origin Date:  Mon Mar 06 22:31:49 2017*
G04 *
G04 Layer:  BOARD GEOMETRY/OUTLINE*
G04 Layer:  ETCH/BOTTOM*
G04 Layer:  PIN/BOTTOM*
G04 Layer:  VIA CLASS/BOTTOM*
G04 *
G04 Offset:    (0.000 0.000)*
G04 Mirror:    No*
G04 Mode:      Positive*
G04 Rotation:  0*
G04 FullContactRelief:  No*
G04 UndefLineWidth:     5.000*
G04 ================== end FILE IDENTIFICATION RECORD ====================*
%FSLAX55Y55*MOIN*%
%IR0*IPPOS*OFA0.00000B0.00000*MIA0B0*SFA1.00000B1.00000*%
%ADD10C,.275591*%
%ADD15O,.137795X.07874*%
%ADD14C,.06*%
%ADD11C,.08*%
%ADD12C,.028*%
%ADD13R,.06X.06*%
%ADD16C,.03*%
%ADD17C,.016*%
%ADD18C,.005*%
%ADD20C,.126004*%
%ADD19C,.108004*%
%ADD21C,.088004*%
G75*
%LPD*%
G75*
G36*
G01X3400Y-76100D02*
Y124100D01*
X18715D01*
G02X18829Y123316I0J-400D01*
G03X27971I4571J-15416D01*
G02X28085Y124100I114J383D01*
G01X371815D01*
G02X371929Y123316I0J-400D01*
G03X381071I4571J-15416D01*
G02X381185Y124100I114J383D01*
G01X395700D01*
Y-76100D01*
X381813D01*
G02X381684Y-75321I0J400D01*
G03X371316I-5184J15221D01*
G02X371187Y-76100I-129J-379D01*
G01X28713D01*
G02X28584Y-75321I0J400D01*
G03X18216I-5184J15221D01*
G02X18087Y-76100I-129J-379D01*
G01X3400D01*
G37*
%LPC*%
G75*
G36*
G01X347247Y45363D02*
G02Y57837I0J6237D01*
G01X353153D01*
G02Y45363I0J-6237D01*
G01X347247D01*
G37*
G36*
G01Y-6637D02*
G02Y5837I0J6237D01*
G01X353153D01*
G02Y-6637I0J-6237D01*
G01X347247D01*
G37*
G36*
G01X204678Y-62400D02*
X78599D01*
X70804Y-54606D01*
G02X74940Y-50391I-1904J6006D01*
G01X74907Y-50505D01*
X81001Y-56600D01*
X202276D01*
X219646Y-39229D01*
G03X219363Y-38546I-283J283D01*
G01X214430D01*
Y-29745D01*
X223231D01*
Y-31810D01*
G03X223996Y-31974I400J0D01*
G02X228500Y-28856I4835J-2172D01*
G03X228757Y-28174I-25J399D01*
G01X224784Y-24200D01*
X203101D01*
X175801Y-51500D01*
X174493D01*
G02X173814Y-44657I-5593J2900D01*
G03X174409Y-44690I312J250D01*
G01X200699Y-18400D01*
X227186D01*
X237744Y-28957D01*
X237847Y-28938D01*
G02X238500Y-28856I983J-5208D01*
G03X238757Y-28174I-25J399D01*
G01X171284Y39300D01*
X124204D01*
X118311Y45194D01*
X118196Y45160D01*
G02X122446Y49409I-1791J6040D01*
G01X122412Y49295D01*
X126607Y45100D01*
X173686D01*
X247744Y-28957D01*
X247847Y-28938D01*
G02X248500Y-28856I983J-5208D01*
G03X248757Y-28174I-25J399D01*
G01X213405Y7178D01*
Y45707D01*
G02X219206I2900J5593D01*
G01Y9581D01*
X257744Y-28957D01*
X257847Y-28938D01*
G02X263480Y-31601I983J-5208D01*
G03X264182I351J192D01*
G02X265700Y-29869I4649J-2545D01*
G01Y-15799D01*
X316011Y34513D01*
X315992Y34617D01*
G02X322820Y30554I5208J983D01*
G03X322797Y29800I122J-381D01*
G02Y21600I-1597J-4100D01*
G03X322820Y20846I145J-373D01*
G02X324100Y11364I-1620J-5046D01*
G01Y7022D01*
X288904Y-28174D01*
G03X289162Y-28856I283J-283D01*
G02X289814Y-28938I-331J-5290D01*
G01X289918Y-28957D01*
X357376Y38500D01*
X375864D01*
G02Y32700I4436J-2900D01*
G01X359778D01*
X294019Y-33059D01*
X294039Y-33162D01*
G02X284182Y-36691I-5208J-983D01*
G03X283480I-351J-192D01*
G02X274182I-4649J2545D01*
G03X273480I-351J-192D01*
G02X264182I-4649J2545D01*
G03X263480I-351J-192D01*
G02X254182I-4649J2545D01*
G03X253480I-351J-192D01*
G02X244182I-4649J2545D01*
G03X243480I-351J-192D01*
G02X234182I-4649J2545D01*
G03X233480I-351J-192D01*
G02X227847Y-39354I-4649J2545D01*
G01X227744Y-39334D01*
X204678Y-62400D01*
G37*
G54D20*
X68900Y-600D03*
X116406Y99200D03*
X168900Y-600D03*
X216306Y99300D03*
G54D19*
X48900Y-48600D03*
Y-600D03*
X96406Y51200D03*
Y99200D03*
X148900Y-48600D03*
Y-600D03*
X196306Y51300D03*
Y99300D03*
G54D21*
X380300Y15800D03*
%LPD*%
G75*
G36*
G01X274182Y-31601D02*
G02X273480I-351J192D01*
G03X271731Y-29709I-4649J-2545D01*
G01Y-28344D01*
X271500Y-28114D01*
Y-18201D01*
X316138Y26437D01*
G02X316820Y26116I283J-283D01*
G03X319603Y21600I4380J-416D01*
G02X319580Y20846I-145J-373D01*
G03X318300Y11364I1620J-5046D01*
G01Y9425D01*
X279918Y-28957D01*
X279814Y-28938D01*
G03X274182Y-31601I-983J-5208D01*
G37*
G54D10*
X23400Y-60100D03*
Y107900D03*
X376500Y-60100D03*
Y107900D03*
G54D11*
X48900Y-48600D03*
Y-600D03*
X68900Y-48600D03*
Y-600D03*
X96406Y51200D03*
Y99200D03*
X116406Y51200D03*
Y99200D03*
X148900Y-48600D03*
Y-600D03*
X168900Y-48600D03*
Y-600D03*
X196306Y51300D03*
Y99300D03*
X216306Y51300D03*
Y99300D03*
G54D12*
X47800Y26300D03*
Y68200D03*
X87000Y25000D03*
X127200Y-18300D03*
Y24100D03*
Y66500D03*
Y108800D03*
X169600Y-18300D03*
Y24100D03*
Y66500D03*
Y108800D03*
X211900Y-60600D03*
X254300D03*
Y-18300D03*
Y24100D03*
X254700Y66500D03*
Y108800D03*
X296600Y-60600D03*
Y24100D03*
Y108800D03*
X339000Y-60600D03*
Y-18300D03*
Y66500D03*
X340200Y108700D03*
G54D13*
X218831Y-34146D03*
G54D14*
X238831D03*
X228831D03*
X248831D03*
X268831D03*
X258831D03*
X288831D03*
X278831D03*
X321200Y15800D03*
Y25700D03*
Y35600D03*
X380300Y15800D03*
Y35600D03*
G54D15*
X350200Y-400D03*
Y51600D03*
G54D16*
G01X228831Y-34146D02*
X203477Y-59500D01*
X79800D01*
X68900Y-48600D01*
G01X116406Y51200D02*
X125406Y42200D01*
X172485D01*
X248831Y-34146D01*
G01X238831D02*
X225985Y-21300D01*
X201900D01*
X174600Y-48600D01*
X168900D01*
G01X216306Y51300D02*
Y8380D01*
X258831Y-34146D01*
G01X321200Y35600D02*
X268600Y-17000D01*
Y-29315D01*
X268831Y-29546D01*
Y-34146D01*
G01X321200Y15800D02*
Y8223D01*
X278831Y-34146D01*
G01X380300Y35600D02*
X358577D01*
X288831Y-34146D01*
G54D17*
G01X48900Y-54200D02*
Y-48600D01*
G01D02*
Y-43000D01*
G01X43300Y-48600D02*
X48900D01*
G01D02*
X54500D01*
G01X48900Y-6200D02*
Y-600D01*
G01D02*
Y5000D01*
G01X43300Y-600D02*
X48900D01*
G01D02*
X54500D01*
G01X96406Y45600D02*
Y51200D01*
G01D02*
Y56800D01*
G01X90805Y51200D02*
X96406D01*
G01D02*
X102006D01*
G01X96406Y93600D02*
Y99200D01*
G01D02*
Y104800D01*
G01X90805Y99200D02*
X96406D01*
G01D02*
X102006D01*
G01X148900Y-54200D02*
Y-48600D01*
G01D02*
Y-43000D01*
G01X143300Y-48600D02*
X148900D01*
G01D02*
X154500D01*
G01X148900Y-6200D02*
Y-600D01*
G01D02*
Y5000D01*
G01X143300Y-600D02*
X148900D01*
G01D02*
X154500D01*
G01X196306Y45700D02*
Y51300D01*
G01D02*
Y56900D01*
G01X190705Y51300D02*
X196306D01*
G01D02*
X201906D01*
G01X196306Y93700D02*
Y99300D01*
G01D02*
Y104900D01*
G01X190705Y99300D02*
X196306D01*
G01D02*
X201906D01*
G01X218831Y-38746D02*
Y-34146D01*
G01D02*
Y-29545D01*
G01X214230Y-34146D02*
X218831D01*
G01X316600Y25700D02*
X321200D01*
G01D02*
X325800D01*
G01X380300Y11200D02*
Y15800D01*
G01D02*
Y20400D01*
G01X375700Y15800D02*
X380300D01*
G01D02*
X384900D01*
G54D18*
G01X1400Y-78100D02*
Y126100D01*
X397700D01*
Y-78100D01*
X1400D01*
M02*
