G04 ================== begin FILE IDENTIFICATION RECORD ==================*
G04 Layout Name:  KEY_20170306.brd*
G04 Film Name:    SILK_TOP*
G04 File Format:  Gerber RS274X*
G04 File Origin:  Cadence Allegro 16.6-P004*
G04 Origin Date:  Mon Mar 06 22:31:49 2017*
G04 *
G04 Layer:  REF DES/SILKSCREEN_TOP*
G04 Layer:  PACKAGE GEOMETRY/SILKSCREEN_TOP*
G04 Layer:  BOARD GEOMETRY/SILKSCREEN_TOP*
G04 Layer:  BOARD GEOMETRY/OUTLINE*
G04 *
G04 Offset:    (0.000 0.000)*
G04 Mirror:    No*
G04 Mode:      Positive*
G04 Rotation:  0*
G04 FullContactRelief:  No*
G04 UndefLineWidth:     5.000*
G04 ================== end FILE IDENTIFICATION RECORD ====================*
%FSLAX55Y55*MOIN*%
%IR0*IPPOS*OFA0.00000B0.00000*MIA0B0*SFA1.00000B1.00000*%
%ADD10C,.005*%
G75*
%LPD*%
G75*
G54D10*
G01X1400Y-78100D02*
Y126100D01*
X397700D01*
Y-78100D01*
X1400D01*
G01X19870Y-42934D02*
Y-37934D01*
G01X22530D02*
Y-42934D01*
G01Y-40434D02*
X19870D01*
G01X25097Y-40850D02*
X25540Y-40267D01*
X25920Y-39934D01*
X26427Y-39767D01*
X26870Y-39934D01*
X27187Y-40267D01*
X27440Y-40767D01*
X27503Y-41350D01*
X27440Y-41850D01*
X27187Y-42350D01*
X26807Y-42767D01*
X26363Y-42934D01*
X25857Y-42767D01*
X25413Y-42267D01*
X25160Y-41517D01*
X25097Y-40684D01*
X25223Y-39600D01*
X25413Y-39017D01*
X25730Y-38434D01*
X26173Y-38017D01*
X26617Y-37934D01*
X27060Y-38100D01*
X27377Y-38517D01*
G01X21070Y-22867D02*
X21577Y-23284D01*
X22147Y-23534D01*
X22653D01*
X23160Y-23284D01*
X23540Y-22867D01*
X23730Y-22284D01*
X23603Y-21700D01*
X23287Y-21200D01*
X22717Y-20867D01*
X21957Y-20700D01*
X21513Y-20367D01*
X21323Y-19784D01*
X21450Y-19200D01*
X21767Y-18784D01*
X22210Y-18534D01*
X22653D01*
X23097Y-18700D01*
X23477Y-19117D01*
G01X25600Y-18534D02*
X26487Y-23534D01*
X27500Y-18534D01*
X28513Y-23534D01*
X29400Y-18534D01*
G01X32600Y-23534D02*
Y-18534D01*
X31840Y-19533D01*
G01Y-23534D02*
X33360D01*
G01X20470Y83966D02*
Y88966D01*
G01X23130D02*
Y83966D01*
G01Y86466D02*
X20470D01*
G01X25507Y84716D02*
X25887Y84300D01*
X26330Y84050D01*
X26900Y83966D01*
X27470Y84133D01*
X27913Y84466D01*
X28230Y85050D01*
X28293Y85716D01*
X28167Y86383D01*
X27850Y86800D01*
X27407Y87133D01*
X26963Y87216D01*
X26520Y87133D01*
X25950Y86800D01*
X26140Y88966D01*
X27850D01*
G01X82900Y-400D02*
Y-47600D01*
X35700D01*
Y-400D01*
X82900D01*
G01X64976Y75233D02*
X65482Y74816D01*
X66052Y74566D01*
X66559D01*
X67066Y74816D01*
X67446Y75233D01*
X67636Y75816D01*
X67509Y76400D01*
X67192Y76900D01*
X66622Y77233D01*
X65862Y77400D01*
X65419Y77733D01*
X65229Y78316D01*
X65356Y78900D01*
X65672Y79316D01*
X66116Y79566D01*
X66559D01*
X67002Y79400D01*
X67382Y78983D01*
G01X69506Y79566D02*
X70392Y74566D01*
X71405Y79566D01*
X72419Y74566D01*
X73306Y79566D01*
G01X75112Y75566D02*
X75492Y74983D01*
X75999Y74650D01*
X76569Y74566D01*
X77076Y74650D01*
X77582Y75066D01*
X77899Y75566D01*
X77962Y76066D01*
X77836Y76650D01*
X77392Y77066D01*
X76949Y77233D01*
X76379D01*
G01X76949D02*
X77329Y77483D01*
X77646Y77900D01*
X77772Y78400D01*
X77646Y78900D01*
X77329Y79316D01*
X76759Y79566D01*
X76189Y79483D01*
X75619Y79150D01*
G01X130406Y99400D02*
Y52200D01*
X83206D01*
Y99400D01*
X130406D01*
G01X118970Y-27967D02*
X119477Y-28384D01*
X120047Y-28634D01*
X120553D01*
X121060Y-28384D01*
X121440Y-27967D01*
X121630Y-27384D01*
X121503Y-26800D01*
X121187Y-26300D01*
X120617Y-25967D01*
X119857Y-25800D01*
X119413Y-25467D01*
X119223Y-24884D01*
X119350Y-24300D01*
X119667Y-23884D01*
X120110Y-23634D01*
X120553D01*
X120997Y-23800D01*
X121377Y-24217D01*
G01X123500Y-23634D02*
X124387Y-28634D01*
X125400Y-23634D01*
X126413Y-28634D01*
X127300Y-23634D01*
G01X129297Y-24467D02*
X129677Y-23967D01*
X130120Y-23717D01*
X130627Y-23634D01*
X131260Y-23800D01*
X131703Y-24217D01*
X131830Y-24717D01*
X131767Y-25217D01*
X131513Y-25633D01*
X130247Y-26467D01*
X129677Y-27050D01*
X129297Y-27884D01*
X129170Y-28634D01*
X131830D01*
G01X182900Y-400D02*
Y-47600D01*
X135700D01*
Y-400D01*
X182900D01*
G01X167376Y78133D02*
X167882Y77716D01*
X168452Y77466D01*
X168959D01*
X169466Y77716D01*
X169846Y78133D01*
X170036Y78716D01*
X169909Y79300D01*
X169592Y79800D01*
X169022Y80133D01*
X168262Y80300D01*
X167819Y80633D01*
X167629Y81216D01*
X167756Y81800D01*
X168072Y82216D01*
X168516Y82466D01*
X168959D01*
X169402Y82300D01*
X169782Y81883D01*
G01X171906Y82466D02*
X172792Y77466D01*
X173805Y82466D01*
X174819Y77466D01*
X175706Y82466D01*
G01X179666Y77466D02*
Y82466D01*
X177322Y78883D01*
X180489D01*
G01X230306Y99500D02*
Y52300D01*
X183106D01*
Y99500D01*
X230306D01*
G01X305733Y43966D02*
X306050Y43466D01*
X306430Y43133D01*
X306873Y42966D01*
X307380Y43133D01*
X307760Y43466D01*
X308140Y43966D01*
X308267Y44633D01*
Y47966D01*
G01X310897Y47133D02*
X311277Y47633D01*
X311720Y47883D01*
X312227Y47966D01*
X312860Y47800D01*
X313303Y47383D01*
X313430Y46883D01*
X313367Y46383D01*
X313113Y45967D01*
X311847Y45133D01*
X311277Y44550D01*
X310897Y43716D01*
X310770Y42966D01*
X313430D01*
G01X321200Y-400D02*
X380200D01*
Y51600D01*
X321200D01*
Y-400D01*
G01X374470Y-42333D02*
Y-37334D01*
G01X377130D02*
Y-42333D01*
G01Y-39834D02*
X374470D01*
G01X380773Y-42333D02*
X380900Y-41250D01*
X381090Y-40334D01*
X381343Y-39500D01*
X381660Y-38584D01*
X382167Y-37334D01*
X379633D01*
G01X375570Y85966D02*
Y90966D01*
G01X378230D02*
Y85966D01*
G01Y88466D02*
X375570D01*
G01X382000Y85966D02*
X382443Y86050D01*
X382950Y86300D01*
X383267Y86716D01*
X383393Y87300D01*
X383267Y87883D01*
X382887Y88383D01*
X382317Y88633D01*
X381683D01*
X381303Y88800D01*
X380987Y89216D01*
X380860Y89800D01*
X381050Y90383D01*
X381493Y90800D01*
X382000Y90966D01*
X382507Y90800D01*
X382950Y90383D01*
X383140Y89800D01*
X383013Y89216D01*
X382697Y88800D01*
X382317Y88633D01*
X381683D01*
X381113Y88383D01*
X380733Y87883D01*
X380607Y87300D01*
X380733Y86716D01*
X381050Y86300D01*
X381557Y86050D01*
X382000Y85966D01*
M02*
